<?xml version="1.0" encoding="UTF-8"?>
<svg width="64px" height="64px" viewBox="0 0 64 64" version="1.1" xmlns="http://www.w3.org/2000/svg" xmlns:xlink="http://www.w3.org/1999/xlink">
    <!-- Generator: Sketch 56.3 (81716) - https://sketch.com -->
    <title>Illustration/Answer/Commercial/Off</title>
    <desc>Created with Sketch.</desc>
    <g id="Illustration/Answer/Commercial/Off" stroke="none" stroke-width="1" fill="none" fill-rule="evenodd">
        <g id="ic_answer_commercial_off">
            <rect id="icon_container" x="0" y="0" width="64" height="64"></rect>
            <g id="gateway" transform="translate(0.000000, 1.000000)" fill-rule="nonzero">
                <path d="M60.1625193,17.4929678 L55.3334145,6.62602616 L7.62602616,6.62602616 L2.79692131,17.4929678 C2.4856793,18.1911595 2.32520523,18.9475876 2.32520523,19.7124278 C2.32520523,22.7310227 4.77308193,25.1788994 7.79167681,25.1788994 L8.65940148,25.1788994 C11.1681029,25.1788994 13.3532681,23.4719211 13.9634577,21.0389271 L14.2520523,19.8780785 C14.2520523,22.8054361 16.6255156,25.1788994 19.5528732,25.1788994 L20.7150161,25.1788994 C23.1467159,25.1788994 25.2671738,23.5236869 25.8579513,21.1638123 L26.1788994,19.8780785 C26.1788994,22.8054361 28.5523627,25.1788994 31.4797203,25.1788994 C34.407078,25.1788994 36.7805412,22.8054361 36.7805412,19.8780785 L37.1027835,21.1638123 C37.6922669,23.5236869 39.8127248,25.1788994 42.2457188,25.1788994 L43.4065674,25.1788994 C46.3339251,25.1788994 48.7073883,22.8054361 48.7073883,19.8780785 L48.997924,21.0389271 C49.6061725,23.4719211 51.7926318,25.1788994 54.3000392,25.1788994 L55.1677638,25.1788994 C58.1863587,25.1788994 60.6342354,22.7310227 60.6342354,19.7124278 C60.6342354,18.9475876 60.4737613,18.1911595 60.1625193,17.4929678 Z" id="Path" fill="#D1E6FF"></path>
                <path d="M63,19.9777166 C63,19.0078163 62.8005901,18.0680819 62.4044031,17.1827773 L57.6086957,6.43058993 L57.6086957,4.02911932 C57.6086957,1.80798856 55.7942638,-1.42108547e-14 53.5652174,-1.42108547e-14 L10.4347826,-1.42108547e-14 C8.2057362,-1.42108547e-14 6.39130435,1.80798856 6.39130435,4.02911932 L6.39130435,6.43058993 L1.59559693,17.1827773 C1.19940986,18.0680819 1,19.0078163 1,19.9777166 C1,22.1870432 2.06746782,24.1334017 3.69565217,25.3944688 L3.69565217,48.3494318 L3.69565217,58.125 L60.3043478,58.125 L60.3043478,25.3944688 C61.9325322,24.1334017 63,22.1870432 63,19.9777166 Z M9.08695652,4.02911932 C9.08695652,3.28808672 9.69242527,2.68607955 10.4347826,2.68607955 L53.5652174,2.68607955 C54.3075747,2.68607955 54.9130435,3.28808672 54.9130435,4.02911932 L54.9130435,5.37215909 L9.08695652,5.37215909 L9.08695652,4.02911932 Z M48.1660156,20.2288808 C48.1199474,22.4113205 46.3311821,24.1747159 44.1304348,24.1747159 L42.9484545,24.1747159 C41.0899287,24.1747159 39.4762228,22.918895 39.02607,21.1220547 L38.7391304,19.9790281 L38.7391304,8.05823864 L45.7211064,8.05823864 L48.1660156,20.2288808 Z M25.2608696,19.9790281 L24.97393,21.1233663 C24.5237772,22.918895 22.9100713,24.1747159 21.0515455,24.1747159 L19.8695652,24.1747159 C17.6405188,24.1747159 15.826087,22.3667274 15.826087,20.1455966 L15.7991042,20.1455966 L18.2749448,8.05823864 L25.2608696,8.05823864 L25.2608696,19.9790281 Z M27.9565217,8.05823864 L36.0434783,8.05823864 L36.0434783,20.1455966 C36.0434783,22.3667274 34.2290464,24.1747159 32,24.1747159 C29.7709536,24.1747159 27.9565217,22.3667274 27.9565217,20.1455966 L27.9565217,8.05823864 Z M4.05827535,18.2733414 L8.61508581,8.05823864 L15.5305919,8.05823864 L13.17058,19.8203291 L12.875743,20.9968004 C12.4065048,22.8664325 10.7256708,24.1747159 8.79014517,24.1747159 L7.9076087,24.1747159 C5.58510959,24.1747159 3.69565217,22.2919682 3.69565217,19.9777166 C3.69565217,19.3881693 3.81806208,18.8143608 4.05827535,18.2733414 Z M27.2608696,48.3494318 L27.2608696,40.6051136 L36.7391304,40.6051136 L36.7391304,56.4076705 L27.2608696,56.4076705 L27.2608696,48.3494318 Z M57.6086957,56.4076705 L39.4347826,56.4076705 L39.4347826,37.9190341 L24.5652174,37.9190341 L24.5652174,56.4076705 L6.39130435,56.4076705 L6.39130435,26.682423 C6.88028622,26.7925942 7.38440468,26.8607955 7.9076087,26.8607955 L8.79014517,26.8607955 C11.0613111,26.8607955 13.103452,25.7525254 14.3716458,24.0042128 C15.5931132,25.7269499 17.5970831,26.8607955 19.8695652,26.8607955 L21.0515455,26.8607955 C23.2851988,26.8607955 25.2918012,25.7636737 26.5277471,24.0350346 C27.7518469,25.7394096 29.7426545,26.8607955 32,26.8607955 C34.2573455,26.8607955 36.2481531,25.7394096 37.4722529,24.0350346 C38.7081988,25.7636737 40.7148012,26.8607955 42.9484545,26.8607955 L44.1304348,26.8607955 C46.4029169,26.8607955 48.4068868,25.7269499 49.6283542,24.0042128 C50.896548,25.7525254 52.9386889,26.8607955 55.2098548,26.8607955 L56.0923913,26.8607955 C56.614279,26.8607955 57.1183976,26.7925942 57.6086957,26.682423 L57.6086957,56.4076705 Z M55.2098548,24.1747159 C53.2730129,24.1747159 51.5934952,22.8664325 51.124257,20.9968004 L48.4759893,8.05823864 L55.3849142,8.05823864 L59.9417247,18.2733414 C60.1819379,18.8143608 60.3043478,19.3881693 60.3043478,19.9777166 C60.3043478,22.2919682 58.4148904,24.1747159 56.0923913,24.1747159 L55.2098548,24.1747159 Z" id="Shape" fill="#005B93"></path>
                <polygon id="Path" fill="#005B93" transform="translate(53.206386, 53.513349) rotate(-90.000000) translate(-53.206386, -53.513349) " points="52.1791877 52.4969738 54.2335847 52.4969738 54.2335847 54.5297237 52.1791877 54.5297237"></polygon>
                <polygon id="Path" fill="#005B93" transform="translate(49.140886, 53.513349) rotate(-90.000000) translate(-49.140886, -53.513349) " points="48.1136879 52.4969738 50.168085 52.4969738 50.168085 54.5297237 48.1136879 54.5297237"></polygon>
                <polygon id="Path" fill="#005B93" transform="translate(45.075387, 53.513349) rotate(-90.000000) translate(-45.075387, -53.513349) " points="44.0481882 52.4969738 46.1025853 52.4969738 46.1025853 54.5297237 44.0481882 54.5297237"></polygon>
                <g id="Group" transform="translate(8.951231, 29.154515)" fill="#D1E6FF">
                    <polygon id="Path" points="10.6016419 10.6016419 0 10.6016419 0 0 10.6016419 0"></polygon>
                    <polygon id="Path" points="45.0569779 10.6016419 34.455336 10.6016419 34.455336 0 45.0569779 0"></polygon>
                </g>
                <path d="M57.9728932,56.4837173 C60.7751575,56.6113932 63.0153846,58.9245339 63.0153846,61.7502873 L63.0153846,63 L0,63 L0,61.7502873 C0,58.9245339 2.24022715,56.6113932 5.04249139,56.4837173 L57.9728932,56.4837173 Z M7.5479793,56.4781642 L29.2464501,56.4781642 L7.5479793,56.4781642 Z M57.7286475,58.9775895 L5.28673707,58.9775895 C4.22228087,58.9775895 3.2702616,59.5825148 2.8038883,60.5005747 L60.2114963,60.5005747 C59.745123,59.5825148 58.7931037,58.9775895 57.7286475,58.9775895 Z M31.751938,56.4781642 L55.4674053,56.4781642 L31.751938,56.4781642 Z" id="Shape" fill="#005B93"></path>
            </g>
        </g>
    </g>
</svg>