<?xml version="1.0" encoding="UTF-8"?>
<svg width="64px" height="64px" viewBox="0 0 64 64" version="1.1" xmlns="http://www.w3.org/2000/svg" xmlns:xlink="http://www.w3.org/1999/xlink">
    <!-- Generator: Sketch 55.2 (78181) - https://sketchapp.com -->
    <title>Illustration/Answer/End/Off</title>
    <desc>Created with Sketch.</desc>
    <g id="Illustration/Answer/End/Off" stroke="none" stroke-width="1" fill="none" fill-rule="evenodd">
        <g id="ic_end_off" fill-rule="nonzero">
            <polygon id="Path" fill="#D1E6FF" points="47.483871 16.516129 57.8064516 16.516129 57.8064516 26.8387097 47.483871 26.8387097"></polygon>
            <path d="M52.0403226,0 L2.06451613,0 C0.925907226,0 0,0.925907226 0,2.06451613 L0,41.2903226 C0,42.4289315 0.925907226,43.3548387 2.06451613,43.3548387 L18.9400201,43.3548387 L18.9400201,41.2903226 L2.06451613,41.2903226 L2.06451613,2.06451613 L50.5806452,2.06451613 L50.5806452,5.16129032 L5.16129032,5.16129032 L5.16129032,38.1935484 L23.0614919,38.1935484 L23.0614919,36.1290323 L17.5483871,36.1290323 L17.5483871,27.8709677 L25.8064516,27.8709677 L25.8064516,35.0967742 L27.8709677,35.0967742 L27.8709677,27.8709677 L36.1290323,27.8709677 L36.1290323,35.0967742 L38.1935484,35.0967742 L38.1935484,27.8709677 L46.4516129,27.8709677 L46.4516129,36.1290323 L41.1396169,36.1290323 L41.1396169,38.1935484 L58.8387097,38.1935484 L58.8387097,13.4193548 L61.9354839,13.4193548 L61.9354839,41.2903226 L45.0599799,41.2903226 L45.0599799,43.3548387 L61.9354839,43.3548387 C63.0740928,43.3548387 64,42.4289315 64,41.2903226 L64,11.9596774 L52.0403226,0 Z M52.6451613,3.52419355 L60.4758065,11.3548387 L52.6451613,11.3548387 L52.6451613,3.52419355 Z M27.8709677,7.22580645 L36.1290323,7.22580645 L36.1290323,15.483871 L27.8709677,15.483871 L27.8709677,7.22580645 Z M25.8064516,15.483871 L17.5483871,15.483871 L17.5483871,7.22580645 L25.8064516,7.22580645 L25.8064516,15.483871 Z M38.1935484,7.22580645 L46.4516129,7.22580645 L46.4516129,15.483871 L38.1935484,15.483871 L38.1935484,7.22580645 Z M15.483871,7.22580645 L15.483871,15.483871 L7.22580645,15.483871 L7.22580645,7.22580645 L15.483871,7.22580645 Z M15.483871,17.5483871 L15.483871,25.8064516 L7.22580645,25.8064516 L7.22580645,17.5483871 L15.483871,17.5483871 Z M15.483871,36.1290323 L7.22580645,36.1290323 L7.22580645,27.8709677 L15.483871,27.8709677 L15.483871,36.1290323 Z M17.5483871,25.8064516 L17.5483871,17.5483871 L25.8064516,17.5483871 L25.8064516,25.8064516 L17.5483871,25.8064516 Z M27.8709677,25.8064516 L27.8709677,17.5483871 L36.1290323,17.5483871 L36.1290323,25.8064516 L27.8709677,25.8064516 Z M38.1935484,25.8064516 L38.1935484,17.5483871 L46.4516129,17.5483871 L46.4516129,25.8064516 L38.1935484,25.8064516 Z M48.516129,17.5483871 L56.7741935,17.5483871 L56.7741935,25.8064516 L48.516129,25.8064516 L48.516129,17.5483871 Z M48.516129,36.1290323 L48.516129,27.8709677 L56.7741935,27.8709677 L56.7741935,36.1290323 L48.516129,36.1290323 Z M56.7741935,15.483871 L48.516129,15.483871 L48.516129,7.22580645 L50.5806452,7.22580645 L50.5806452,13.4193548 L56.7741935,13.4193548 L56.7741935,15.483871 Z" id="Shape" fill="#005B93"></path>
            <polygon id="Path" fill="#005B93" points="29.9354839 20.6451613 34.0645161 20.6451613 34.0645161 22.7096774 29.9354839 22.7096774"></polygon>
            <polygon id="Path" fill="#005B93" points="40.2580645 20.6451613 44.3870968 20.6451613 44.3870968 22.7096774 40.2580645 22.7096774"></polygon>
            <polygon id="Path" fill="#005B93" points="50.5806452 20.6451613 54.7096774 20.6451613 54.7096774 22.7096774 50.5806452 22.7096774"></polygon>
            <polygon id="Path" fill="#005B93" points="9.29032258 20.6451613 13.4193548 20.6451613 13.4193548 22.7096774 9.29032258 22.7096774"></polygon>
            <polygon id="Path" fill="#005B93" points="19.6129032 20.6451613 23.7419355 20.6451613 23.7419355 22.7096774 19.6129032 22.7096774"></polygon>
            <polygon id="Path" fill="#005B93" points="30.9677419 43.3548387 30.9677419 49.5483871 35.0967742 49.5483871 35.0967742 47.483871 33.0322581 47.483871 33.0322581 43.3548387"></polygon>
            <path d="M32,64 C23.4621975,64 16.516129,57.0539315 16.516129,48.516129 C16.516129,39.9783266 23.4621975,33.0322581 32,33.0322581 C40.5378025,33.0322581 47.483871,39.9783266 47.483871,48.516129 C47.483871,57.0539315 40.5378025,64 32,64 Z M32,38.1935484 C26.3079637,38.1935484 21.6774194,42.8240928 21.6774194,48.516129 C21.6774194,54.2081653 26.3079637,58.8387097 32,58.8387097 C37.6920363,58.8387097 42.3225806,54.2081653 42.3225806,48.516129 C42.3225806,42.8240928 37.6920363,38.1935484 32,38.1935484 Z" id="Shape" fill="#D1E6FF"></path>
            <path d="M32,37.1612903 C29.3876008,37.1612903 26.8356854,38.0725806 24.8145161,39.7263105 L26.1224799,41.3235886 C27.5075605,40.1900201 29.1995968,39.4899194 30.9677419,39.2908266 L30.9677419,41.2903226 L33.0322581,41.2903226 L33.0322581,39.2867943 C37.3306452,39.7646169 40.7515121,43.1844759 41.2293347,47.483871 L39.2258065,47.483871 L39.2258065,49.5483871 L41.2253025,49.5483871 C41.0262097,51.3175404 40.3261089,53.0085685 39.1925404,54.3926412 L40.7908266,55.7016129 C42.4445564,53.6804436 43.3548387,51.1285283 43.3548387,48.516129 C43.3548387,42.2555444 38.2605846,37.1612903 32,37.1612903 L32,37.1612903 Z" id="Path" fill="#005B93"></path>
            <path d="M33.0322581,57.7414315 L33.0322581,55.7419355 L30.9677419,55.7419355 L30.9677419,57.7454637 C26.6693548,57.2676412 23.2484879,53.8477822 22.7706653,49.5483871 L24.7741935,49.5483871 L24.7741935,47.483871 L22.7746975,47.483871 C22.9737903,45.7147177 23.6738911,44.0236895 24.8074596,42.6396169 L23.2091734,41.3306452 C21.5554436,43.3518145 20.6451613,45.9037298 20.6451613,48.516129 C20.6451613,54.7767137 25.7394154,59.8709677 32,59.8709677 C34.6123992,59.8709677 37.1643146,58.9596774 39.1854839,57.3059476 L37.8775201,55.7086694 C36.4924395,56.8422379 34.8014114,57.5423387 33.0322581,57.7414315 L33.0322581,57.7414315 Z" id="Path" fill="#005B93"></path>
        </g>
    </g>
</svg>