<?xml version="1.0" encoding="UTF-8"?>
<svg width="64px" height="64px" viewBox="0 0 64 64" version="1.1" xmlns="http://www.w3.org/2000/svg" xmlns:xlink="http://www.w3.org/1999/xlink">
    <!-- Generator: Sketch 56.3 (81716) - https://sketch.com -->
    <title>Illustration/Answer/Calendar/Monthly/Off</title>
    <desc>Created with Sketch.</desc>
    <g id="Illustration/Answer/Calendar/Monthly/Off" stroke="none" stroke-width="1" fill="none" fill-rule="evenodd">
        <g id="ic_answer_calendar_off">
            <rect id="icon_container" x="0" y="0" width="64" height="64"></rect>
            <g id="calendar" fill-rule="nonzero">
                <polygon id="Path" fill="#D1E6FF" points="46.9032258 40.2903226 14 40.2903226 14 19 46.9032258 19"></polygon>
                <polygon id="1" fill="#005B93" points="30.048 22 32.688 22 32.688 37.4 29.652 37.4 29.652 25.212 26.748 26.026 26 23.43"></polygon>
                <path d="M60,10.6451613 C60,7.97709677 57.8293548,5.80645161 55.1612903,5.80645161 L49.3548387,5.80645161 C49.3548387,2.60419355 47.1841935,0 44.516129,0 C41.8480645,0 39.6774194,2.60419355 39.6774194,5.80645161 L35.8064516,5.80645161 C35.8064516,2.60419355 33.6358065,0 30.9677419,0 C28.2996774,0 26.1290323,2.60419355 26.1290323,5.80645161 L22.2580645,5.80645161 C22.2580645,2.60419355 20.0874194,0 17.4193548,0 C14.7512903,0 12.5806452,2.60419355 12.5806452,5.80645161 C9.91258065,5.80645161 7.74193548,7.97709677 7.74193548,10.6451613 L7.74193548,44.516129 L0,44.516129 L0,49.3548387 C0,52.0229032 2.17064516,54.1935484 4.83870968,54.1935484 L7.74193548,54.1935484 L7.74193548,60 L56.1290323,60 L56.1290323,56.1290323 L60,56.1290323 L60,10.6451613 Z M44.516129,1.93548387 C46.1167742,1.93548387 47.4193548,3.6716129 47.4193548,5.80645161 L41.6129032,5.80645161 C41.6129032,3.6716129 42.9154839,1.93548387 44.516129,1.93548387 Z M30.9677419,1.93548387 C32.5683871,1.93548387 33.8709677,3.6716129 33.8709677,5.80645161 L28.0645161,5.80645161 C28.0645161,3.6716129 29.3670968,1.93548387 30.9677419,1.93548387 Z M17.4193548,1.93548387 C19.02,1.93548387 20.3225806,3.6716129 20.3225806,5.80645161 L14.516129,5.80645161 C14.516129,3.6716129 15.8187097,1.93548387 17.4193548,1.93548387 Z M12.5806452,7.74193548 L12.8632258,7.74193548 C13.53,9.99387097 15.3174194,11.6129032 17.4193548,11.6129032 L17.4193548,9.67741935 C16.35,9.67741935 15.423871,8.89354839 14.9196774,7.74193548 L26.4106452,7.74193548 C27.0774194,9.99387097 28.8648387,11.6129032 30.9667742,11.6129032 L30.9667742,9.67741935 C29.8974194,9.67741935 28.9712903,8.89354839 28.4670968,7.74193548 L39.9580645,7.74193548 C40.6248387,9.99387097 42.4122581,11.6129032 44.5141935,11.6129032 L44.5141935,9.67741935 C43.4448387,9.67741935 42.5187097,8.89354839 42.0145161,7.74193548 L51.3125806,7.74193548 C50.7009677,8.55290323 50.3225806,9.5516129 50.3225806,10.6451613 L50.3225806,13.5483871 L9.67741935,13.5483871 L9.67741935,10.6451613 C9.67741935,9.04451613 10.98,7.74193548 12.5806452,7.74193548 Z M9.67741935,15.483871 L50.3225806,15.483871 L50.3225806,49.3548387 C50.3225806,50.9554839 49.02,52.2580645 47.4193548,52.2580645 C45.8187097,52.2580645 44.516129,50.9554839 44.516129,49.3548387 L44.516129,44.516129 L9.67741935,44.516129 L9.67741935,15.483871 Z M1.93548387,49.3548387 L1.93548387,46.4516129 L42.5806452,46.4516129 L42.5806452,49.3548387 C42.5806452,50.4435484 42.9416129,51.4490323 43.5503226,52.2580645 L4.83870968,52.2580645 C3.23806452,52.2580645 1.93548387,50.9554839 1.93548387,49.3548387 Z M58.0645161,54.1935484 L56.1290323,54.1935484 L56.1290323,13.5483871 L54.1935484,13.5483871 L54.1935484,58.0645161 L9.67741935,58.0645161 L9.67741935,54.1935484 L47.4193548,54.1935484 C50.0874194,54.1935484 52.2580645,52.0229032 52.2580645,49.3548387 L52.2580645,10.6451613 C52.2580645,9.04451613 53.5606452,7.74193548 55.1612903,7.74193548 C56.7619355,7.74193548 58.0645161,9.04451613 58.0645161,10.6451613 L58.0645161,54.1935484 Z" id="Shape" fill="#005B93"></path>
                <polygon id="Path" fill="#005B93" points="54.1935484 9.67741935 56.1290323 9.67741935 56.1290323 11.6129032 54.1935484 11.6129032"></polygon>
                <polygon id="Path" fill="#005B93" points="3.87096774 48.3870968 5.80645161 48.3870968 5.80645161 50.3225806 3.87096774 50.3225806"></polygon>
                <polygon id="Path" fill="#005B93" points="7.74193548 48.3870968 9.67741935 48.3870968 9.67741935 50.3225806 7.74193548 50.3225806"></polygon>
                <polygon id="Path" fill="#005B93" points="11.6129032 48.3870968 13.5483871 48.3870968 13.5483871 50.3225806 11.6129032 50.3225806"></polygon>
            </g>
        </g>
    </g>
</svg>