<?xml version="1.0" encoding="UTF-8"?>
<svg width="24px" height="24px" viewBox="0 0 24 24" version="1.1" xmlns="http://www.w3.org/2000/svg" xmlns:xlink="http://www.w3.org/1999/xlink">
    <!-- Generator: Sketch 55.2 (78181) - https://sketchapp.com -->
    <title>Icon/System/Notaccess</title>
    <desc>Created with Sketch.</desc>
    <g id="Icon/System/Notaccess" stroke="none" stroke-width="1" fill="none" fill-rule="evenodd">
        <rect id="icon_container" x="0" y="0" width="26" height="26"></rect>
        <g id="grid" transform="translate(2.000000, 2.500000)" fill="#829DB4" fill-rule="nonzero">
            <path d="M18.8304094,-1.77635684e-15 L15.9064328,-1.77635684e-15 C15.2632921,-1.77635684e-15 14.7366186,0.526226364 14.7368421,1.16959063 L14.7368421,4.09379074 C14.7368421,4.73715501 15.2632921,5.26360491 15.9064328,5.26360491 L18.8304094,5.26360491 C19.4739972,5.26360491 20,4.73715501 20,4.09379074 L20,1.16959063 C20,0.526226364 19.4737736,-1.77635684e-15 18.8304094,-1.77635684e-15 Z" id="Path"></path>
            <path d="M11.4620876,1.77635684e-15 L8.53791235,1.77635684e-15 C7.89460273,1.77635684e-15 7.36842105,0.526181673 7.36842105,1.1694913 L7.36842105,4.09344307 C7.36842105,4.73675269 7.89460273,5.26315789 8.53791235,5.26315789 L11.4620876,5.26315789 C12.1053973,5.26315789 12.6315789,4.73675269 12.6315789,4.09344307 L12.6315789,1.1694913 C12.6315789,0.526181673 12.1053973,1.77635684e-15 11.4620876,1.77635684e-15 Z" id="Path"></path>
            <path d="M5.26293437,14.8539254 C5.26293437,14.2103923 4.73652917,13.6842105 4.09321954,13.6842105 L1.1694913,13.6842105 C0.526181673,13.6839871 0,14.2103923 0,14.8539254 L0,17.7776537 C0,18.4209633 0.526181673,18.947145 1.16971482,18.947145 L4.09344307,18.947145 C4.73675269,18.947145 5.26315789,18.4209633 5.26315789,17.7776537 L5.26293437,17.7776537 L5.26293437,14.8539254 Z" id="Path"></path>
            <path d="M18.8304094,13.6842105 L15.9064327,13.6842105 C15.263292,13.6842105 14.7368421,14.2104369 14.7368421,14.8540247 L14.7368421,17.7780013 C14.7368421,18.4215891 15.263292,18.947592 15.9064327,18.947592 L18.8304094,18.947592 C19.4737736,18.9478155 20,18.4215891 20,17.7782249 L20,14.8542483 C20,14.2106604 19.4737736,13.6842105 18.8304094,13.6842105 Z" id="Path"></path>
            <path d="M11.4620876,13.6842105 L8.53791235,13.6842105 C7.89460273,13.6842105 7.36842105,14.2103922 7.36842105,14.8539254 L7.36842105,17.7776536 C7.36842105,18.4211867 7.89460273,18.9471449 8.53791235,18.9471449 L11.4620876,18.9471449 C12.1053973,18.9471449 12.6315789,18.4209632 12.6315789,17.7776536 L12.6315789,14.8539254 C12.6315789,14.2106157 12.1053973,13.6842105 11.4620876,13.6842105 Z" id="Path"></path>
            <path d="M5.26293437,8.01159656 C5.26293437,7.36828694 4.73652917,6.84210526 4.09321954,6.84210526 L1.1694913,6.84210526 C0.526181673,6.84210526 0,7.36828694 0,8.01159656 L0,10.9357719 C0,11.5790815 0.526181673,12.1052632 1.16971482,12.1052632 L4.09344307,12.1052632 C4.73675269,12.1052632 5.26315789,11.5790815 5.26315789,10.9357719 L5.26293437,10.9357719 L5.26293437,8.01159656 Z" id="Path"></path>
            <path d="M18.8304094,6.84210526 L15.9064327,6.84210526 C15.263292,6.84210526 14.7368421,7.36833163 14.7368421,8.01169591 L14.7368421,10.9361196 C14.7368421,11.5794839 15.263292,12.1057102 15.9064327,12.1057102 L18.8304094,12.1057102 C19.4739972,12.1057102 20,11.5794839 20,10.9361196 L20,8.01169591 C20,7.36833163 19.4737736,6.84210526 18.8304094,6.84210526 Z" id="Path"></path>
            <path d="M11.4620876,6.84210526 L8.53791235,6.84210526 C7.89460273,6.84210526 7.36842105,7.36828694 7.36842105,8.01159656 L7.36842105,10.9357719 C7.36842105,11.5790815 7.89460273,12.1052632 8.53791235,12.1052632 L11.4620876,12.1052632 C12.1053973,12.1052632 12.6315789,11.5790815 12.6315789,10.9357719 L12.6315789,8.01159656 C12.6315789,7.36828694 12.1053973,6.84210526 11.4620876,6.84210526 Z" id="Path"></path>
        </g>
        <polygon id="arrrow" fill="#730331" transform="translate(4.074074, 3.481481) scale(1, -1) rotate(45.000000) translate(-4.074074, -3.481481) " points="4.07407407 1.44444444 7.33333333 5.51851852 0.814814815 5.51851852"></polygon>
    </g>
</svg>