<?xml version="1.0" encoding="UTF-8"?>
<svg width="26px" height="26px" viewBox="0 0 26 26" version="1.1" xmlns="http://www.w3.org/2000/svg" xmlns:xlink="http://www.w3.org/1999/xlink">
    <!-- Generator: Sketch 55.2 (78181) - https://sketchapp.com -->
    <title>Icon/System/Settings</title>
    <desc>Created with Sketch.</desc>
    <g id="Icon/System/Settings" stroke="none" stroke-width="1" fill="none" fill-rule="evenodd">
        <path d="M25.1211254,9.91212469 C25.6228445,9.97334636 26,10.3993214 26,10.9047619 L26,15.0952381 C26,15.568608 25.6680929,15.9771286 25.2047519,16.074052 L23.0471873,16.5253793 C22.903145,16.9214798 22.7200598,17.3164913 22.5105441,17.69173 L24.0293507,19.6191679 C24.3534793,20.0305026 24.3053599,20.6222354 23.9190303,20.975796 L20.7970791,23.8329388 C20.4292229,24.169593 19.8695632,24.1837943 19.4851063,23.86623 L17.4311215,22.1696235 C17.0754713,22.3199611 16.731333,22.4417935 16.3508522,22.5535651 L16.0415965,25.1196507 C15.9810524,25.6220225 15.5547874,26 15.0487805,26 L10.7560976,26 C10.2271729,26 9.78972253,25.5881162 9.75790816,25.0601491 L9.60450979,22.5144667 C9.22254858,22.3761594 8.84263532,22.2045556 8.48115944,22.0101186 L6.47851734,23.5139341 C6.07424286,23.8175102 5.50698278,23.7715966 5.1567933,23.4069548 L2.22996403,20.3593358 C1.87192347,19.986519 1.85701582,19.4022735 2.19557721,19.0116822 L3.91328483,17.0299978 C3.76653929,16.6956195 3.64621466,16.3700905 3.53557969,16.0120599 L0.885904036,15.7077554 C0.381081398,15.6497786 0,15.2224266 0,14.7142857 L0,10.5238095 C0,10.0214194 0.372742147,9.59701754 0.870929985,9.53217404 L3.16661424,9.23337069 C3.30767326,8.85431899 3.48401562,8.4769969 3.68457783,8.11779377 L2.16577126,6.1903559 C1.84164265,5.77902126 1.88976209,5.18728837 2.27609163,4.83372786 L5.39804285,1.976585 C5.78933498,1.61848282 6.39215169,1.62819278 6.77170746,1.99871151 L8.62426169,3.80715731 C8.9604098,3.66739818 9.28844788,3.55239561 9.6491478,3.44643493 L9.95840346,0.880349285 C10.0189476,0.377977491 10.4452126,0 10.9512195,0 L15.2439024,0 C15.7438904,0 16.1670404,0.36928271 16.2347032,0.864671119 L16.538073,3.08577163 C16.9377038,3.22720341 17.3359164,3.40557894 17.7139625,3.60892904 L19.7166046,2.10511354 C20.1208791,1.80153747 20.6881392,1.84745102 21.0383287,2.21209277 L23.9651579,5.25971182 C24.3231985,5.63252866 24.3381061,6.21677408 23.9995447,6.60736546 L22.2818371,8.5890498 C22.4292589,8.92496908 22.5500157,9.25195723 22.6610712,9.6119395 L25.1211254,9.91212469 Z M24,11.7901555 L21.7569234,11.5164467 C21.3479963,11.4665479 21.0115158,11.1709817 20.9093121,10.7719006 C20.7155264,10.0152135 20.5376158,9.5289248 20.2075176,8.8844473 C20.0215686,8.52140397 20.0747544,8.08180886 20.3419187,7.77358692 L21.8905937,5.98691207 L20.2093047,4.23623659 L18.3809564,5.60917218 C18.0449937,5.86145183 17.5871662,5.87683008 17.2350319,5.64766334 C16.6743847,5.28279769 16.0009433,4.97600772 15.397057,4.82863072 C14.9979,4.73121738 14.6989484,4.39956393 14.6433456,3.99247174 L14.3712031,2 L11.8379389,2 L11.5537917,4.35774595 C11.5039394,4.7714012 11.2028338,5.11080021 10.7980649,5.2095831 C10.0188927,5.39973822 9.51688253,5.57475878 8.85326855,5.8986656 C8.47359339,6.08398324 8.01841872,6.01069738 7.71609742,5.71557421 L6.0510091,4.09013085 L4.31154651,5.68204974 L5.68788728,7.42869172 C5.95828609,7.77184068 5.97462524,8.25080231 5.72824001,8.61158069 C5.35684491,9.15540923 5.04483788,9.808077 4.89556597,10.3909483 C4.79408726,10.7871984 4.46151595,11.0816981 4.05589928,11.1344926 L2,11.4020859 L2,13.8225585 L4.43116913,14.1017684 C4.84300848,14.1490664 5.18296459,14.4455606 5.28580988,14.847147 C5.47959559,15.6038341 5.65750611,16.0901228 5.98760434,16.7346003 C6.17355336,17.0976436 6.12036752,17.5372388 5.85320328,17.8454607 L4.30452827,19.6321355 L5.98581722,21.382811 L7.81416559,20.0098754 C8.15012825,19.7575958 8.60795578,19.7422175 8.96009003,19.9713843 C9.52073725,20.3362499 10.1941786,20.6430399 10.7980649,20.7904169 C11.2241741,20.8944078 11.5327827,21.2639347 11.559165,21.7017556 L11.6976532,24 L14.1620611,24 L14.4462083,21.642254 C14.4960606,21.2285988 14.7971662,20.8891998 15.2019351,20.7904169 C15.9811073,20.6002618 16.4831175,20.4252412 17.1467315,20.1013344 C17.4992378,19.9292777 17.9197851,19.9792023 18.2222108,20.2290081 L20.0883346,21.77044 L21.8835754,20.1274741 L20.5072347,18.3808321 C20.2368359,18.0376831 20.2204967,17.5587215 20.4668819,17.1979431 C20.838277,16.6541146 21.1502841,16.0014468 21.299556,15.4185756 C21.3941275,15.0492961 21.6904199,14.7659035 22.0635408,14.6878528 L24,14.2827771 L24,11.7901555 Z M12.902439,17.4285714 C10.2299474,17.4285714 8.19512195,15.2950551 8.19512195,12.6190476 C8.19512195,9.9851989 10.3793787,8 13.097561,8 C15.7700526,8 17.804878,10.1335163 17.8005766,12.902249 C17.5554295,15.5345886 15.5433935,17.4285714 12.902439,17.4285714 Z M12.902439,15.4285714 C14.4963535,15.4285714 15.6585276,14.3345861 15.804878,12.8095238 C15.804878,11.2174537 14.6437405,10 13.097561,10 C11.4435662,10 10.195122,11.1346697 10.195122,12.6190476 C10.195122,14.2111177 11.3562595,15.4285714 12.902439,15.4285714 Z" id="ic_settings" fill="#005B93" fill-rule="nonzero"></path>
    </g>
</svg>