<?xml version="1.0" encoding="UTF-8"?>
<svg width="26px" height="26px" viewBox="0 0 26 26" version="1.1" xmlns="http://www.w3.org/2000/svg" xmlns:xlink="http://www.w3.org/1999/xlink">
    <!-- Generator: Sketch 55.2 (78181) - https://sketchapp.com -->
    <title>Icon/System/Portal</title>
    <desc>Created with Sketch.</desc>
    <g id="Icon/System/Portal" stroke="none" stroke-width="1" fill="none" fill-rule="evenodd">
        <rect id="icon_container" x="0" y="0" width="26" height="26"></rect>
        <g id="grid" transform="translate(1.000000, 1.000000)" fill="#005B93" fill-rule="nonzero">
            <path d="M6.27866667,1.3952 C6.27866667,0.627733333 5.65066667,0 4.8832,0 L1.3952,0 C0.627733333,0 1.77635684e-15,0.627733333 1.77635684e-15,1.3952 L1.77635684e-15,4.88346667 C1.77635684e-15,5.65093333 0.627733333,6.2792 1.39546667,6.27893342 L4.88346667,6.27893342 C5.65093333,6.27893342 6.27893333,5.65093333 6.27893333,4.88346667 L6.27866667,4.88346667 L6.27866667,1.3952 Z" id="Path"></path>
            <path d="M22.6048,0 L19.1168,0 C18.3496,0 17.7213333,0.627733333 17.7215999,1.3952 L17.7215999,4.88346667 C17.7215999,5.65093333 18.3496,6.27893333 19.1168,6.27893333 L22.6048,6.27893333 C23.3725333,6.27893333 24,5.65093333 24,4.88346667 L24,1.3952 C24,0.627733333 23.3722667,0 22.6048,0 Z" id="Path"></path>
            <path d="M13.7442667,0 L10.2557333,0 C9.48826667,0 8.86053333,0.627733333 8.86053333,1.3952 L8.86053333,4.88346667 C8.86053333,5.65093333 9.48826667,6.27893333 10.2557333,6.27893333 L13.7442667,6.27893333 C14.5117333,6.27893333 15.1394667,5.65093333 15.1394667,4.88346667 L15.1394667,1.3952 C15.1394667,0.627733333 14.5117333,0 13.7442667,0 Z" id="Path"></path>
            <path d="M6.27866667,19.1168 C6.27866667,18.3490667 5.65066667,17.7213332 4.8832,17.7213332 L1.3952,17.7213332 C0.627733333,17.7210667 1.77635684e-15,18.3490667 1.77635684e-15,19.1168 L1.77635684e-15,22.6048 C1.77635684e-15,23.3722667 0.627733333,24 1.39546667,24 L4.88346667,24 C5.65093333,24 6.27893333,23.3722667 6.27893333,22.6048 L6.27866667,22.6048 L6.27866667,19.1168 Z" id="Path"></path>
            <path d="M22.6048,17.7210667 L19.1168,17.7210667 C18.3496,17.7210667 17.7216,18.3488 17.7216,19.1165333 L17.7216,22.6045333 C17.7216,23.3722667 18.3496,23.9997334 19.1168,23.9997334 L22.6048,23.9997334 C23.3722667,24 24,23.3722667 24,22.6048 L24,19.1168 C24,18.3490667 23.3722667,17.7210667 22.6048,17.7210667 Z" id="Path"></path>
            <path d="M13.7442667,17.7210667 L10.2557333,17.7210667 C9.48826667,17.7210667 8.86053333,18.3488 8.86053333,19.1165333 L8.86053333,22.6045333 C8.86053333,23.3722667 9.48826667,23.9997333 10.2557333,23.9997333 L13.7442667,23.9997333 C14.5117333,23.9997333 15.1394667,23.372 15.1394667,22.6045333 L15.1394667,19.1165333 C15.1394667,18.3490667 14.5117333,17.7210667 13.7442667,17.7210667 Z" id="Path"></path>
            <path d="M6.27866667,10.2557333 C6.27866667,9.48826667 5.65066667,8.86053333 4.8832,8.86053333 L1.3952,8.86053333 C0.627733333,8.86053333 1.77635684e-15,9.48826667 1.77635684e-15,10.2557333 L1.77635684e-15,13.7442667 C1.77635684e-15,14.5117333 0.627733333,15.1394667 1.39546667,15.1394667 L4.88346667,15.1394667 C5.65093333,15.1394667 6.27893333,14.5117333 6.27893333,13.7442667 L6.27866667,13.7442667 L6.27866667,10.2557333 Z" id="Path"></path>
            <path d="M22.6048,8.86053333 L19.1168,8.86053333 C18.3496,8.86053333 17.7216,9.48826667 17.7216,10.2557333 L17.7216,13.7442667 C17.7216,14.5117333 18.3496,15.1394667 19.1168,15.1394667 L22.6048,15.1394667 C23.3725333,15.1394667 24,14.5117333 24,13.7442667 L24,10.2557333 C24,9.48826667 23.3722667,8.86053333 22.6048,8.86053333 Z" id="Path"></path>
            <path d="M13.7442667,8.86053333 L10.2557333,8.86053333 C9.48826667,8.86053333 8.86053333,9.48826667 8.86053333,10.2557333 L8.86053333,13.7442667 C8.86053333,14.5117333 9.48826667,15.1394667 10.2557333,15.1394667 L13.7442667,15.1394667 C14.5117333,15.1394667 15.1394667,14.5117333 15.1394667,13.7442667 L15.1394667,10.2557333 C15.1394667,9.48826667 14.5117333,8.86053333 13.7442667,8.86053333 Z" id="Path"></path>
        </g>
    </g>
</svg>