<?xml version="1.0" encoding="UTF-8"?>
<svg width="135px" height="135px" viewBox="0 0 135 135" version="1.1" xmlns="http://www.w3.org/2000/svg" xmlns:xlink="http://www.w3.org/1999/xlink">
    <!-- Generator: Sketch 55.2 (78181) - https://sketchapp.com -->
    <title>Illustration/Tool/Rachat rente/Off</title>
    <desc>Created with Sketch.</desc>
    <g id="Illustration/Tool/Rachat-rente/Off" stroke="none" stroke-width="1" fill="none" fill-rule="evenodd">
        <g id="ic_tool_rachatrente_off">
            <rect id="icon_container" x="0" y="0" width="135" height="135"></rect>
            <g id="agreement" transform="translate(0.000000, 8.064921)" fill-rule="nonzero">
                <path d="M66.2377231,98.7698638 C67.5658483,100.101869 69.4029017,100.865253 71.282366,100.865253 C75.1294643,100.865253 78.2555803,97.7893291 78.3906251,93.9634519 C82.1183034,93.8302513 85.1149554,90.8248447 85.247768,87.0862755 C88.9754463,86.9530749 91.9720983,83.9476684 92.1049109,80.2090992 C95.9196429,80.0714212 98.9877231,76.9372914 98.9877231,73.0800731 C98.9877231,72.7543474 98.935268,72.4330991 98.8917411,72.1096121 L102.171875,68.8198951 L104.822545,74.1389612 L120.582589,66.2364766 L118.53683,62.1352438 L106.868303,67.9882315 L93.0100446,40.1884994 L105.040179,35.4570829 L103.371652,31.1879501 L89.748884,36.5461929 L69.3671874,30.4133723 C67.8381697,29.9555656 66.2656251,29.7943818 64.7064731,29.8514678 L64.7064731,29.8010976 L39.9296874,29.8010976 L29.498884,26.3244523 L28.0569197,30.6752962 L36.5345983,33.4993708 L24.5714286,63.4997097 L17.5502231,60.6823509 L15.8537946,64.9391706 L27.1171874,69.4579145 L29.9453126,62.3691841 L34.0412946,66.4793716 L30.219866,70.3130842 C28.8917411,71.6450893 28.1305803,73.48751 28.1305803,75.3724653 C28.1305803,79.2296835 31.1975446,82.3660522 35.0122769,82.5014913 C35.1450891,86.2400605 38.1417411,89.2454671 41.8694197,89.3786677 C42.002232,93.1172368 44.998884,96.1226434 48.7265626,96.255844 C48.8638394,100.081721 51.9888394,103.157646 55.8359374,103.157646 C57.7142857,103.157646 59.5524554,102.394261 60.8794643,101.062256 L64.7020089,97.2296628 L66.2377231,98.7698638 Z M68.0502231,34.8078703 L88.2421874,40.8824856 L100.015625,64.501512 L96.7020089,67.8225701 L87.3069197,58.3283954 C88.1462054,58.4078681 88.9921874,58.4559992 89.844866,58.4559992 L89.844866,53.8712149 C84.5234374,53.8712149 79.4308034,51.8844007 75.5089286,48.2779125 L70.1640626,43.3674026 C67.1473214,40.5892204 62.030134,40.7000344 59.1339286,43.608059 L53.0792411,49.6815551 C52.5993303,50.1583904 51.938616,50.4326267 51.2645089,50.4326267 C49.8515626,50.4326267 48.7020089,49.2797148 48.7020089,47.8637598 C48.7020089,47.1753705 48.9665177,46.5317545 49.4508929,46.0448449 L58.1640626,37.3073388 C60.7265626,34.7373523 64.5691966,33.7601754 68.0502231,34.8078703 Z M41.1060269,34.3858819 L54.6127231,34.3858819 L46.219866,42.8043787 C44.8705357,44.1542931 44.1305803,45.9519406 44.1305803,47.8637598 C44.1305803,51.8082861 47.3303571,55.017411 51.2645089,55.017411 C53.1428571,55.017411 54.9810269,54.2540266 56.3080357,52.9220213 L62.3638394,46.8474062 C63.6026786,45.6094248 65.7845983,45.5612935 67.0747769,46.7466662 L72.4185269,51.6594147 C74.1941966,53.291401 76.1674109,54.6491508 78.2790177,55.7125164 L93.6662946,71.2611583 C94.1439731,71.741352 94.4162946,72.4028773 94.4162946,73.0800731 C94.4162946,74.4960282 93.2667411,75.6489401 91.8537946,75.6489401 C91.1796874,75.6489401 90.5189731,75.3769426 90.0412946,74.8978685 L70.8895089,55.6890102 L67.657366,58.930596 L86.8091517,78.1383347 C87.2868303,78.6185283 87.5591517,79.2800537 87.5591517,79.9572495 C87.5591517,81.3732045 86.4095983,82.5261165 84.9966517,82.5261165 C84.3225446,82.5261165 83.6618303,82.254119 83.1841517,81.7750448 L64.032366,62.5661866 L60.8002231,65.8077723 L79.9520089,85.015511 C80.4296874,85.4957047 80.7020089,86.15723 80.7020089,86.8344259 C80.7020089,88.2503809 79.5524554,89.4032928 78.1395089,89.4032928 C77.4654017,89.4032928 76.8046874,89.1312953 76.3270089,88.6522212 L57.1752231,69.443363 L53.9430803,72.6849487 L73.094866,91.8926874 C73.5725446,92.3728811 73.844866,93.0344064 73.844866,93.7116023 C73.844866,95.1275573 72.6953126,96.2804692 71.282366,96.2804692 C70.6082589,96.2804692 69.9475446,96.0084717 69.469866,95.5293976 L66.8917411,92.942621 C66.9375,92.6224922 66.9877231,92.3012438 66.9877231,91.9732793 C66.9877231,88.1149418 63.9196429,84.9796924 60.1049109,84.8442533 C59.9720983,81.1056841 56.9754463,78.1002775 53.247768,77.9670769 C53.1149554,74.2285077 50.1183034,71.2231011 46.3906251,71.0899005 C46.2533483,67.2640236 43.1294643,64.1869795 39.282366,64.1869795 C38.9575891,64.1869795 38.6372769,64.2395881 38.3158483,64.2832422 L31.7901786,57.7385074 L41.1060269,34.3858819 Z M32.7020089,75.3724653 C32.7020089,74.6952694 32.9732143,74.0337441 33.4508929,73.5535504 L37.469866,69.5239549 C37.9475446,69.044881 38.6082589,68.7717637 39.282366,68.7717637 C40.6953126,68.7717637 41.844866,69.9257952 41.844866,71.3417502 C41.844866,72.0178271 41.5725446,72.6804717 41.094866,73.1595455 L37.0770089,77.1902606 C36.5993303,77.6693347 35.938616,77.9413322 35.2645089,77.9413322 C33.8515626,77.9413322 32.7020089,76.7884203 32.7020089,75.3724653 Z M39.5591517,82.2496416 C39.5591517,81.5724458 39.8303571,80.9109205 40.3080357,80.4307268 L44.3270089,76.4011312 C44.8046874,75.9220574 45.4654017,75.6489401 46.1395089,75.6489401 C47.5524554,75.6489401 48.7020089,76.8029715 48.7020089,78.2189266 C48.7020089,78.8950034 48.4296874,79.557648 47.9520089,80.0367219 L43.9341517,84.067437 C43.4564731,84.5465111 42.7957589,84.8185086 42.1216517,84.8185086 C40.7087054,84.8185086 39.5591517,83.6655967 39.5591517,82.2496416 Z M46.4162946,89.126818 C46.4162946,88.4496222 46.6875,87.7880968 47.1651786,87.3079031 L51.1841517,83.2783076 C51.6618303,82.7992338 52.3225446,82.5261165 52.9966517,82.5261165 C54.4095983,82.5261165 55.5591517,83.6801479 55.5591517,85.0961029 C55.5591517,85.7721798 55.2868303,86.4348244 54.8091517,86.9138983 L50.7912946,90.9446133 C50.313616,91.4236875 49.6529017,91.6956849 48.9787946,91.6956849 C47.5658483,91.6956849 46.4162946,90.542773 46.4162946,89.126818 Z M61.6662946,93.7910746 L57.6484374,97.8217897 C57.1707589,98.3008638 56.5100446,98.5728613 55.8359374,98.5728613 C54.4229911,98.5728613 53.2734374,97.4199494 53.2734374,96.0039944 C53.2734374,95.3267985 53.5446429,94.6652732 54.0223214,94.1850795 L58.0412946,90.155484 C58.5189731,89.6764101 59.1796874,89.4032928 59.8537946,89.4032928 C61.2667411,89.4032928 62.4162946,90.5573243 62.4162946,91.9732793 C62.4162946,92.6493562 62.1439731,93.3120008 61.6662946,93.7910746 Z" id="Shape" fill="#005B93"></path>
                <polygon id="Path" fill="#005B93" points="23.3482143 100.127614 26.5803571 96.8849088 29.8125 100.127614 26.5803571 103.3692"></polygon>
                <polygon id="Path" fill="#005B93" points="32.0680803 107.883466 34.6093749 104.07214 38.407366 106.618621 35.8671874 110.429946"></polygon>
                <polygon id="Path" fill="#005B93" points="42.1294643 113.789062 43.8794643 109.553509 48.1026786 111.308622 46.3526786 115.544175"></polygon>
                <polygon id="Path" fill="#005B93" points="53.1506697 117.617178 54.0435269 113.123059 58.5234374 114.018525 57.6305803 118.512643"></polygon>
                <polygon id="Path" fill="#005B93" points="95.563616 12.5824123 98.1049109 8.77108656 101.902902 11.3175669 99.3616071 15.1288928"></polygon>
                <path d="M99.9043011,20.8379052 C96.1161075,20.8379052 93.0333333,17.7461245 93.0333333,13.9468636 C93.0333333,10.1476026 96.1161075,7.05582192 99.9043011,7.05582192 C103.692495,7.05582192 106.775269,10.1476026 106.775269,13.9468636 C106.775269,17.7461245 103.692495,20.8379052 99.9043011,20.8379052 Z" id="Path" fill="#D1E6FF"></path>
                <polygon id="Path" fill="#005B93" points="85.8671874 7.89800724 87.6171874 3.6624546 91.8404017 5.41756732 90.0904017 9.65311996"></polygon>
                <polygon id="Path" fill="#005B93" points="75.4508929 5.19705897 76.3415177 0.699582772 80.8225446 1.59280964 79.9319197 6.08916658"></polygon>
                <path d="M66.9877231,4.58478425 L69.2734374,4.58478425 L69.2734374,7.10542736e-15 L66.9877231,7.10542736e-15 C51.9453126,7.10542736e-15 37.592634,5.64926914 26.5736606,15.9045899 L29.6841517,19.2659442 C39.8560269,9.79863327 53.1015626,4.58478425 66.9877231,4.58478425 L66.9877231,4.58478425 Z" id="Path" fill="#005B93"></path>
                <path d="M66.9877231,114.619606 L64.7020089,114.619606 L64.7020089,119.20439 L66.9877231,119.20439 C87.8816966,119.20439 106.859375,108.510292 117.75558,90.5976202 L113.853795,88.2112042 C103.794643,104.747097 86.2745537,114.619606 66.9877231,114.619606 L66.9877231,114.619606 Z" id="Path" fill="#005B93"></path>
                <polygon id="Path" fill="#D1E6FF" points="8.77194854 83.3902411 2.55350898e-13 78.9926208 0.0286451111 16.1221767 32.0286451 27.1583546 30.2027523 30.8241673"></polygon>
                <polygon id="Path" fill="#D1E6FF" points="127.861607 82.7274916 101 31.2975399 135.00558 17.9350789 135.00558 77.6794636"></polygon>
            </g>
        </g>
    </g>
</svg>