<?xml version="1.0" encoding="UTF-8"?>
<svg width="135px" height="135px" viewBox="0 0 135 135" version="1.1" xmlns="http://www.w3.org/2000/svg" xmlns:xlink="http://www.w3.org/1999/xlink">
    <!-- Generator: Sketch 57.1 (83088) - https://sketch.com -->
    <title>Illustration/Tool/Viager/Off</title>
    <desc>Created with Sketch.</desc>
    <g id="Illustration/Tool/Viager/Off" stroke="none" stroke-width="1" fill="none" fill-rule="evenodd">
        <g id="ic_tool_viager_off">
            <rect id="icon_container" x="0" y="0" width="135" height="135"></rect>
            <g id="growth" transform="translate(0.000000, 9.000000)" fill-rule="nonzero">
                <g id="Group" transform="translate(2.016129, 42.531564)">
                    <ellipse id="Oval" fill="#D1E6FF" cx="20.1612903" cy="36.4556259" rx="20.1612903" ry="20.2531255"></ellipse>
                    <path d="M22.8802497,39.1546516 L25.182945,40.4522849 C24.2672487,42.4885811 22.7254009,43.506714 20.5573552,43.506714 C19.0626157,43.506714 17.8338505,43.0209382 16.8710227,42.049372 C15.908195,41.0778058 15.2921292,39.7602221 15.0228067,38.0965814 L13.608871,38.0965814 L13.608871,36.5394214 L14.8814131,36.5394214 L14.8814131,35.7608415 L13.608871,35.7608415 L13.608871,34.2236451 L15.0430058,34.2236451 C15.3257944,32.5999317 15.9452267,31.3189476 16.9013214,30.3806542 C17.857416,29.4423608 19.0760818,28.9732212 20.5573552,28.9732212 C22.6446042,28.9732212 24.1662531,29.9447728 25.1223478,31.8879052 L22.7994533,33.2055021 C22.3012068,32.1673902 21.5538483,31.6483421 20.5573552,31.6483421 C19.1434124,31.6483421 18.2411958,32.5067679 17.8506782,34.2236451 L21.9914901,34.2236451 L21.9914901,35.7608415 L17.6486874,35.7608415 L17.6486874,36.5394214 L21.9914901,36.5394214 L21.9914901,38.0965814 L17.8102801,38.0965814 C18.1873315,39.9066225 19.103014,40.8116295 20.5573552,40.8116295 C21.5807805,40.8116295 22.3550709,40.259309 22.8802497,39.1546516 Z" id="€" fill="#005B93"></path>
                    <path d="M88.7096774,12.1518753 L80.6451613,12.1518753 C80.6451613,5.4399895 86.0604839,0 92.7419355,0 L100.806452,0 C100.806452,6.71188578 95.391129,12.1518753 88.7096774,12.1518753 Z" id="Path" fill="#D1E6FF"></path>
                    <path d="M72.5806452,12.1518753 L80.6451613,12.1518753 C80.6451613,5.4399895 75.2298387,0 68.5483871,0 L60.483871,0 C60.483871,6.71188578 65.8991935,12.1518753 72.5806452,12.1518753 Z" id="Path" fill="#D1E6FF"></path>
                    <path d="M88.7096774,40.506251 L80.6451613,40.506251 C80.6451613,31.5584201 87.8669355,24.3037506 96.7741935,24.3037506 L104.83871,24.3037506 C104.83871,33.2515814 97.6169355,40.506251 88.7096774,40.506251 Z" id="Path" fill="#D1E6FF"></path>
                    <path d="M72.5806452,40.506251 L80.6451613,40.506251 C80.6451613,31.5584201 73.4233871,24.3037506 64.516129,24.3037506 L56.4516129,24.3037506 C56.4516129,33.2515814 63.6733871,40.506251 72.5806452,40.506251 Z" id="Path" fill="#D1E6FF"></path>
                    <ellipse id="Oval" fill="#D1E6FF" cx="80.6451613" cy="56.7087514" rx="20.1612903" ry="8.10125019"></ellipse>
                </g>
                <ellipse id="Oval" fill="#005B93" cx="34.2741935" cy="78.9871894" rx="2.01612903" ry="2.02531255"></ellipse>
                <ellipse id="Oval" fill="#005B93" cx="10.0806452" cy="78.9871894" rx="2.01612903" ry="2.02531255"></ellipse>
                <path d="M118.951613,28.3543757 C122.28629,28.3543757 125,25.628305 125,22.278438 L125,18.2278129 C125,14.877946 122.28629,12.1518753 118.951613,12.1518753 L116.935484,12.1518753 L116.935484,10.1265627 C116.935484,4.54277605 112.413306,0 106.854839,0 L58.4677419,0 C52.9092742,0 48.3870968,4.54277605 48.3870968,10.1265627 L48.3870968,12.1518753 L46.3709677,12.1518753 C43.0362903,12.1518753 40.3225806,14.877946 40.3225806,18.2278129 L40.3225806,22.278438 C40.3225806,25.628305 43.0362903,28.3543757 46.3709677,28.3543757 L48.3870968,28.3543757 L48.3870968,33.4480367 C48.3870968,36.1538543 47.3366935,38.6976469 45.4314516,40.6095419 L44.4576613,41.5897932 C41.7923387,44.2672564 40.3225806,47.8277558 40.3225806,51.6150903 L40.3225806,66.2175938 C36.3064516,60.477858 29.6774194,56.7087514 22.1774194,56.7087514 C9.94959677,56.7087514 0,66.7036688 0,78.9871894 C0,87.7507168 5.0766129,95.327411 12.4173387,98.962847 C8.36895161,105.356759 6.16935484,113.235225 10.2399194,117.314204 C10.4858871,117.561292 10.7701613,117.751672 11.046371,117.956228 L11.0443548,117.958253 L16.4576613,123.396218 C17.8971774,124.844316 19.9193548,125.573429 22.3689516,125.573429 C24.1129032,125.573429 26.0745968,125.200771 28.1995968,124.455456 C32.6169355,122.902041 37.2862903,119.868123 41.0080645,116.131422 C41.0443548,116.094966 41.078629,116.056485 41.1129032,116.020029 C43.0362903,121.559259 48.3024194,125.569378 54.4354839,125.569378 L110.887097,125.569378 C118.667339,125.569378 125,119.207871 125,111.39219 L125,51.6150903 C125,47.8257305 123.530242,44.2672564 120.866935,41.5918185 L119.889113,40.6075166 C117.985887,38.6956215 116.935484,36.1538543 116.935484,33.4480367 L116.935484,28.3543757 L118.951613,28.3543757 Z M52.4193548,10.1265627 C52.4193548,6.77669579 55.1330645,4.0506251 58.4677419,4.0506251 L106.854839,4.0506251 C110.189516,4.0506251 112.903226,6.77669579 112.903226,10.1265627 L112.903226,12.1518753 L52.4193548,12.1518753 L52.4193548,10.1265627 Z M44.3548387,22.278438 L44.3548387,18.2278129 C44.3548387,17.1118657 45.2580645,16.2025004 46.3709677,16.2025004 L118.951613,16.2025004 C120.064516,16.2025004 120.967742,17.1118657 120.967742,18.2278129 L120.967742,22.278438 C120.967742,23.3943852 120.064516,24.3037506 118.951613,24.3037506 L46.3709677,24.3037506 C45.2580645,24.3037506 44.3548387,23.3943852 44.3548387,22.278438 Z M4.03225806,78.9871894 C4.03225806,68.9355632 12.171371,60.7593764 22.1774194,60.7593764 C32.1834677,60.7593764 40.3225806,68.9355632 40.3225806,78.9871894 C40.3225806,89.0388156 32.1834677,97.2150023 22.1774194,97.2150023 C12.171371,97.2150023 4.03225806,89.0388156 4.03225806,78.9871894 Z M39.5322581,111.785101 L36.3044355,108.542575 C38.1451613,106.480807 39.7721774,104.202331 41.0725806,101.875246 L44.171371,104.988152 C42.983871,107.33954 41.3891129,109.67675 39.5322581,111.785101 L39.5322581,111.785101 Z M26.7923387,116.171928 C29.1129032,114.863576 31.375,113.239275 33.4334677,111.38814 L36.6794355,114.648893 C34.5806452,116.51218 32.2540323,118.116228 29.9133065,119.309137 L26.7923387,116.171928 Z M45.8064516,100.901071 L42.9092742,97.990697 C43.5544355,96.331966 44.0040323,94.6995641 44.2116935,93.1522253 L45.3870968,94.3329826 C46.5322581,95.4833601 46.6693548,97.899558 45.8064516,100.901071 L45.8064516,100.901071 Z M16.2943548,100.445376 C18.171371,100.965881 20.1391129,101.265627 22.1774194,101.265627 C29.6633065,101.265627 36.2822581,97.5106979 40.3004032,91.7871647 C40.078629,95.8236126 37.2520161,101.954234 32.0604839,107.157262 C24.9899194,114.241805 15.7197581,117.087369 13.0887097,114.446361 C10.9556452,112.311682 12.4254032,106.209415 16.2943548,100.445376 Z M19.3084677,120.5304 L18.1270161,119.343567 C19.6693548,119.130909 21.2923387,118.685341 22.9455645,118.035215 L25.8467742,120.951665 C22.8629032,121.818499 20.453629,121.680778 19.3084677,120.5304 Z M82.6612903,93.1643772 C93.7379032,93.1643772 100.806452,96.7613323 100.806452,99.2403149 C100.806452,101.719297 93.7379032,105.316253 82.6612903,105.316253 C71.5846774,105.316253 64.516129,101.719297 64.516129,99.2403149 C64.516129,96.7613323 71.5846774,93.1643772 82.6612903,93.1643772 Z M80.6451613,109.326371 L80.6451613,113.376996 C77.5725806,113.251427 74.8689516,112.844339 72.5806452,112.275226 L72.5806452,108.301563 C75.1290323,108.866625 77.8830645,109.212954 80.6451613,109.326371 Z M84.6774194,117.427622 C87.4395161,117.314204 90.1935484,116.967876 92.7419355,116.402813 L92.7419355,120.376477 C90.453629,120.943564 87.75,121.352677 84.6774194,121.478247 L84.6774194,117.427622 Z M84.6774194,113.376996 L84.6774194,109.326371 C87.4395161,109.212954 90.1935484,108.866625 92.7419355,108.301563 L92.7419355,112.275226 C90.453629,112.842314 87.75,113.251427 84.6774194,113.376996 Z M80.6451613,117.427622 L80.6451613,121.478247 C77.5725806,121.352677 74.8689516,120.945589 72.5806452,120.376477 L72.5806452,116.402813 C75.1290323,116.967876 77.8830645,117.314204 80.6451613,117.427622 Z M96.7741935,119.03977 L96.7741935,115.242309 C98.2802419,114.699526 99.6491935,114.065603 100.806452,113.33244 L100.806452,115.442815 C100.806452,116.558762 99.3629032,117.899519 96.7741935,119.03977 L96.7741935,119.03977 Z M96.7741935,110.93852 L96.7741935,107.141059 C98.2802419,106.598275 99.6491935,105.964353 100.806452,105.231189 L100.806452,107.341565 C100.806452,108.457512 99.3629032,109.798269 96.7741935,110.93852 L96.7741935,110.93852 Z M64.516129,105.231189 C65.6733871,105.964353 67.0423387,106.598275 68.5483871,107.141059 L68.5483871,110.93852 C65.9596774,109.798269 64.516129,108.457512 64.516129,107.341565 L64.516129,105.231189 Z M64.516129,113.33244 C65.6733871,114.065603 67.0423387,114.699526 68.5483871,115.242309 L68.5483871,119.03977 C65.9596774,117.899519 64.516129,116.558762 64.516129,115.442815 L64.516129,113.33244 Z M117.03629,43.4713085 L118.014113,44.4556104 C119.917339,46.3675055 120.967742,48.9092727 120.967742,51.6150903 L120.967742,111.39219 C120.967742,116.975977 116.445565,121.518753 110.887097,121.518753 L100.683468,121.518753 C103.241935,119.934958 104.83871,117.899519 104.83871,115.442815 L104.83871,107.341565 L104.83871,99.2403149 C104.83871,93.0712128 94.7943548,89.5674221 84.6774194,89.1542584 L84.6774194,54.6834388 L80.6451613,54.6834388 L80.6451613,89.1542584 C70.5282258,89.5674221 60.483871,93.0712128 60.483871,99.2403149 L60.483871,107.341565 L60.483871,115.442815 C60.483871,117.899519 62.0806452,119.934958 64.6391129,121.518753 L54.4354839,121.518753 C49.1633065,121.518753 44.8205645,117.362812 44.4274194,112.149657 C46.5524194,109.314219 48.2580645,106.235744 49.2943548,103.262586 C51.0806452,98.1344942 50.7056452,93.9441225 48.2399194,91.4691906 L43.1028226,86.3066689 C43.8991935,84.0099645 44.3548387,81.5532604 44.3548387,78.9871894 L44.3548387,51.6150903 C44.3548387,48.9092727 45.4052419,46.3654802 47.3104839,44.4535851 L48.2842742,43.4733338 C50.9495968,40.7958707 52.4193548,37.2353712 52.4193548,33.4480367 L52.4193548,28.3543757 L112.903226,28.3543757 L112.903226,33.4480367 C112.903226,37.2353712 114.372984,40.7958707 117.03629,43.4713085 L117.03629,43.4713085 Z" id="Shape" fill="#005B93"></path>
                <polygon id="Path" fill="#005B93" points="48.3870968 60.7593764 52.4193548 60.7593764 52.4193548 64.8100015 48.3870968 64.8100015"></polygon>
                <polygon id="Path" fill="#005B93" points="48.3870968 68.8606266 52.4193548 68.8606266 52.4193548 72.9112517 48.3870968 72.9112517"></polygon>
                <polygon id="Path" fill="#005B93" points="112.903226 52.6581263 116.935484 52.6581263 116.935484 56.7087514 112.903226 56.7087514"></polygon>
                <polygon id="Path" fill="#005B93" points="48.3870968 52.6581263 52.4193548 52.6581263 52.4193548 56.7087514 48.3870968 56.7087514"></polygon>
                <polygon id="Path" fill="#005B93" points="112.903226 60.7593764 116.935484 60.7593764 116.935484 64.8100015 112.903226 64.8100015"></polygon>
                <polygon id="Path" fill="#005B93" points="112.903226 68.8606266 116.935484 68.8606266 116.935484 72.9112517 112.903226 72.9112517"></polygon>
            </g>
        </g>
    </g>
</svg>