<?xml version="1.0" encoding="UTF-8"?>
<svg width="135px" height="135px" viewBox="0 0 135 135" version="1.1" xmlns="http://www.w3.org/2000/svg" xmlns:xlink="http://www.w3.org/1999/xlink">
    <!-- Generator: Sketch 57.1 (83088) - https://sketch.com -->
    <title>Illustration/Tool/Pret/Off</title>
    <desc>Created with Sketch.</desc>
    <g id="Illustration/Tool/Pret/Off" stroke="none" stroke-width="1" fill="none" fill-rule="evenodd">
        <g id="ic_tool_pret_off">
            <rect id="icon_container" x="0" y="0" width="135" height="135"></rect>
            <g id="money" transform="translate(7.000000, 7.000000)" fill-rule="nonzero">
                <path d="M122.51871,29.6877419 C121.773419,27.0472258 120.720516,24.507871 119.378581,22.1130323 L121.934452,16.9145806 L111.085419,6.06554839 L105.884903,8.62348387 C103.492129,7.28154839 100.95071,6.22864516 98.3101935,5.48335484 L96.4459355,0 L81.1024516,0 L79.236129,5.48129032 C76.5956129,6.22658065 74.0541935,7.27948387 71.6614194,8.62141935 L66.4609032,6.06348387 L55.611871,16.9125161 L58.1677419,22.1109677 C56.827871,24.5058065 55.7749677,27.0451613 55.0276129,29.6856774 L49.5483871,31.5540645 L49.5483871,40.8423226 C56.8030968,42.7788387 62.8975484,46.3504516 66.944,50.9357419 C65.0673548,47.4487742 64,43.4621935 64,39.2258065 C64,25.5442581 75.0926452,14.4516129 88.7741935,14.4516129 C102.455742,14.4516129 113.548387,25.5442581 113.548387,39.2258065 C113.548387,52.9073548 102.455742,64 88.7741935,64 C81.2882581,64 74.5909677,60.6658065 70.0490323,55.4157419 C71.4529032,58.0934194 72.2580645,60.9775484 72.2580645,64 C72.2580645,65.9385806 71.9112258,67.8172903 71.3125161,69.6299355 C73.8064516,71.0668387 76.4655484,72.1899355 79.236129,72.9703226 L81.1024516,78.4516129 L96.4459355,78.4516129 L98.3122581,72.9703226 C100.952774,72.2250323 103.494194,71.172129 105.886968,69.8301935 L111.087484,72.388129 L121.936516,61.5390968 L119.380645,56.3406452 C120.720516,53.9458065 121.773419,51.4064516 122.520774,48.7659355 L128,46.8975484 L128,31.5540645 L122.51871,29.6877419 Z" id="Path" fill="#D1E6FF"></path>
                <path d="M88.7741935,66.0645161 C103.572645,66.0645161 115.612903,54.0242581 115.612903,39.2258065 C115.612903,24.4273548 103.572645,12.3870968 88.7741935,12.3870968 C73.9757419,12.3870968 61.9354839,24.4273548 61.9354839,39.2258065 C61.9354839,40.9744516 62.1563871,42.7107097 62.4949677,44.420129 C55.8492903,39.931871 46.9553548,37.1612903 37.1612903,37.1612903 C16.6709677,37.1612903 0,49.2015484 0,64 L0,76.3870968 L0,88.7741935 L0,101.16129 C0,115.959742 16.6709677,128 37.1612903,128 C57.6516129,128 74.3225806,115.959742 74.3225806,101.16129 L74.3225806,88.7741935 L74.3225806,76.3870968 L74.3225806,64 C74.3225806,63.2154839 74.2503226,62.4412903 74.1594839,61.6732903 C78.4743226,64.4913548 83.5282581,66.0645161 88.7741935,66.0645161 Z M88.7741935,16.516129 C101.295484,16.516129 111.483871,26.7045161 111.483871,39.2258065 C111.483871,51.7470968 101.295484,61.9354839 88.7741935,61.9354839 C82.24,61.9354839 76.027871,59.0988387 71.7006452,54.1584516 C70.8892903,52.6802581 69.8962581,51.2722581 68.7504516,49.9344516 C66.9956129,46.6580645 66.0645161,42.9563871 66.0645161,39.2258065 C66.0645161,26.7045161 76.2529032,16.516129 88.7741935,16.516129 Z M4.12903226,76.2384516 C5.77445161,78.5445161 7.86374194,80.6523871 10.3225806,82.5125161 L10.3225806,89.5752258 C6.44129032,85.8529032 4.12903226,81.3068387 4.12903226,76.3870968 L4.12903226,76.2384516 Z M39.2258065,103.149419 C42.0748387,103.035871 44.8392258,102.703484 47.483871,102.150194 L47.483871,110.331871 C44.859871,110.926452 42.0913548,111.287742 39.2258065,111.411613 L39.2258065,103.149419 Z M35.0967742,111.411613 C32.2312258,111.289806 29.4627097,110.928516 26.8387097,110.331871 L26.8387097,102.150194 C29.4833548,102.703484 32.2477419,103.035871 35.0967742,103.149419 L35.0967742,111.411613 Z M22.7096774,109.163355 C19.6665806,108.139355 16.8836129,106.809806 14.4516129,105.222194 L14.4516129,97.5834839 C16.9744516,98.9956129 19.7326452,100.20129 22.7096774,101.113806 L22.7096774,109.163355 Z M22.7096774,113.500903 L22.7096774,121.550452 C19.6665806,120.526452 16.8836129,119.196903 14.4516129,117.60929 L14.4516129,109.970581 C16.9744516,111.384774 19.7326452,112.588387 22.7096774,113.500903 Z M26.8387097,114.53729 C29.4833548,115.090581 32.2477419,115.422968 35.0967742,115.536516 L35.0967742,123.79871 C32.2312258,123.676903 29.4627097,123.315613 26.8387097,122.718968 L26.8387097,114.53729 Z M39.2258065,115.536516 C42.0748387,115.422968 44.8392258,115.090581 47.483871,114.53729 L47.483871,122.718968 C44.859871,123.313548 42.0913548,123.674839 39.2258065,123.79871 L39.2258065,115.536516 Z M51.6129032,113.500903 C54.5899355,112.590452 57.348129,111.384774 59.8709677,109.970581 L59.8709677,117.60929 C57.4389677,119.196903 54.656,120.526452 51.6129032,121.550452 L51.6129032,113.500903 Z M51.6129032,109.163355 L51.6129032,101.111742 C54.5899355,100.20129 57.348129,98.9956129 59.8709677,97.5814194 L59.8709677,105.220129 C57.4389677,106.809806 54.656,108.139355 51.6129032,109.163355 Z M51.6129032,96.7762581 L51.6129032,88.7246452 C54.5899355,87.8141935 57.348129,86.6085161 59.8709677,85.1943226 L59.8709677,92.8330323 C57.4389677,94.4227097 54.656,95.7522581 51.6129032,96.7762581 Z M47.483871,97.9447742 C44.859871,98.5393548 42.0913548,98.9006452 39.2258065,99.0245161 L39.2258065,90.7623226 C42.0748387,90.6487742 44.8392258,90.3163871 47.483871,89.7630968 L47.483871,97.9447742 Z M35.0967742,99.0245161 C32.2312258,98.9027097 29.4627097,98.5414194 26.8387097,97.9447742 L26.8387097,89.7630968 C29.4833548,90.3163871 32.2477419,90.6487742 35.0967742,90.7623226 L35.0967742,99.0245161 Z M22.7096774,96.7762581 C19.6665806,95.7522581 16.8836129,94.4227097 14.4516129,92.8350968 L14.4516129,85.1963871 C16.9744516,86.6085161 19.7326452,87.8141935 22.7096774,88.7267097 L22.7096774,96.7762581 Z M4.12903226,88.6255484 C5.77445161,90.9316129 7.86374194,93.0394839 10.3225806,94.8996129 L10.3225806,101.962323 C6.44129032,98.24 4.12903226,93.6939355 4.12903226,88.7741935 L4.12903226,88.6255484 Z M4.12903226,101.16129 L4.12903226,101.012645 C5.77445161,103.31871 7.86374194,105.426581 10.3225806,107.28671 L10.3225806,114.349419 C6.44129032,110.627097 4.12903226,106.081032 4.12903226,101.16129 Z M70.1935484,101.16129 C70.1935484,106.081032 67.8812903,110.627097 64,114.349419 L64,107.28671 C66.4588387,105.428645 68.548129,103.31871 70.1935484,101.012645 L70.1935484,101.16129 Z M70.1935484,88.7741935 C70.1935484,93.6939355 67.8812903,98.24 64,101.962323 L64,94.8996129 C66.4588387,93.0415484 68.548129,90.9316129 70.1935484,88.6255484 L70.1935484,88.7741935 Z M70.1935484,76.3870968 C70.1935484,81.3068387 67.8812903,85.8529032 64,89.5752258 L64,82.5125161 C66.4588387,80.6544516 68.548129,78.5445161 70.1935484,76.2384516 L70.1935484,76.3870968 Z M37.1612903,86.7096774 C18.948129,86.7096774 4.12903226,76.5212903 4.12903226,64 C4.12903226,51.4787097 18.948129,41.2903226 37.1612903,41.2903226 C55.3744516,41.2903226 70.1935484,51.4787097 70.1935484,64 C70.1935484,76.5212903 55.3744516,86.7096774 37.1612903,86.7096774 Z" id="Shape" fill="#005B93"></path>
                <path d="M93.5048616,43.4411303 L97.1428571,45.4819466 C95.6961616,48.6844744 93.2602182,50.2857143 89.8349539,50.2857143 C87.4734362,50.2857143 85.5321276,49.521724 84.0109698,47.9937206 C82.4898121,46.4657171 81.5164984,44.3935243 81.0909998,41.7770801 L78.8571429,41.7770801 L78.8571429,39.3281005 L80.8676141,39.3281005 L80.8676141,38.1036107 L78.8571429,38.1036107 L78.8571429,35.6860283 L81.122912,35.6860283 C81.5696856,33.1323786 82.5483179,31.1177468 84.0588382,29.6420722 C85.5693585,28.1663976 87.4947111,27.4285714 89.8349539,27.4285714 C93.1325686,27.4285714 95.5366001,28.956552 97.0471204,32.0125589 L93.3772127,34.0847724 C92.5900401,32.4521111 91.409299,31.6357928 89.8349539,31.6357928 C87.6010858,31.6357928 86.1756866,32.9858578 85.5587135,35.6860283 L92.100723,35.6860283 L92.100723,38.1036107 L85.2395911,38.1036107 L85.2395911,39.3281005 L92.100723,39.3281005 L92.100723,41.7770801 L85.4948891,41.7770801 C86.0905872,44.6237714 87.537261,46.0470958 89.8349539,46.0470958 C91.4518489,46.0470958 92.6751392,45.1784493 93.5048616,43.4411303 Z" id="€" fill="#005B93"></path>
                <path d="M43.8629768,69.5007849 L48.2285714,71.9497645 C46.4925368,75.7927979 43.5694047,77.7142857 39.4590875,77.7142857 C36.6252663,77.7142857 34.295696,76.7974974 32.4703067,74.9638932 C30.6449173,73.1302891 29.476941,70.6436578 28.9663426,67.5039246 L26.2857143,67.5039246 L26.2857143,64.5651491 L28.6982797,64.5651491 L28.6982797,63.0957614 L26.2857143,63.0957614 L26.2857143,60.1946625 L29.0046372,60.1946625 C29.5407656,57.130283 30.7151243,54.7127247 32.5277487,52.9419152 C34.3403731,51.1711057 36.6507962,50.2857143 39.4590875,50.2857143 C43.4162252,50.2857143 46.301063,52.1192909 48.1136874,55.7864992 L43.7097981,58.2731554 C42.765191,56.3139619 41.3483016,55.3343799 39.4590875,55.3343799 C36.7784458,55.3343799 35.0679668,56.9544579 34.3275991,60.1946625 L42.1780105,60.1946625 L42.1780105,63.0957614 L33.9446522,63.0957614 L33.9446522,64.5651491 L42.1780105,64.5651491 L42.1780105,67.5039246 L34.2510097,67.5039246 C34.9658475,70.9199543 36.7018561,72.6279435 39.4590875,72.6279435 C41.3993615,72.6279435 42.8673099,71.5855677 43.8629768,69.5007849 Z" id="€" fill="#005B93"></path>
                <circle id="Oval-Copy" fill="#005B93" cx="59.4285714" cy="64" r="2.28571429"></circle>
                <circle id="Oval-Copy" fill="#005B93" cx="13.7142857" cy="64" r="2.28571429"></circle>
                <polygon id="Path" fill="#005B93" points="119.741935 78.4516129 123.870968 78.4516129 123.870968 82.5806452 119.741935 82.5806452"></polygon>
                <polygon id="Path" fill="#005B93" points="119.741935 86.7096774 123.870968 86.7096774 123.870968 90.8387097 119.741935 90.8387097"></polygon>
                <polygon id="Path" fill="#005B93" points="123.870968 82.5806452 128 82.5806452 128 86.7096774 123.870968 86.7096774"></polygon>
                <polygon id="Path" fill="#005B93" points="115.612903 82.5806452 119.741935 82.5806452 119.741935 86.7096774 115.612903 86.7096774"></polygon>
                <polygon id="Path" fill="#005B93" points="82.5806452 92.9032258 86.7096774 92.9032258 86.7096774 97.0322581 82.5806452 97.0322581"></polygon>
                <polygon id="Path" fill="#005B93" points="82.5806452 101.16129 86.7096774 101.16129 86.7096774 105.290323 82.5806452 105.290323"></polygon>
                <polygon id="Path" fill="#005B93" points="86.7096774 97.0322581 90.8387097 97.0322581 90.8387097 101.16129 86.7096774 101.16129"></polygon>
                <polygon id="Path" fill="#005B93" points="78.4516129 97.0322581 82.5806452 97.0322581 82.5806452 101.16129 78.4516129 101.16129"></polygon>
                <polygon id="Path" fill="#005B93" points="43.3548387 0 47.483871 0 47.483871 4.12903226 43.3548387 4.12903226"></polygon>
                <polygon id="Path" fill="#005B93" points="43.3548387 8.25806452 47.483871 8.25806452 47.483871 12.3870968 43.3548387 12.3870968"></polygon>
                <polygon id="Path" fill="#005B93" points="47.483871 4.12903226 51.6129032 4.12903226 51.6129032 8.25806452 47.483871 8.25806452"></polygon>
                <polygon id="Path" fill="#005B93" points="39.2258065 4.12903226 43.3548387 4.12903226 43.3548387 8.25806452 39.2258065 8.25806452"></polygon>
                <polygon id="Path" fill="#005B93" points="22.7096774 20.6451613 26.8387097 20.6451613 26.8387097 24.7741935 22.7096774 24.7741935"></polygon>
                <polygon id="Path" fill="#005B93" points="22.7096774 28.9032258 26.8387097 28.9032258 26.8387097 33.0322581 22.7096774 33.0322581"></polygon>
                <polygon id="Path" fill="#005B93" points="26.8387097 24.7741935 30.9677419 24.7741935 30.9677419 28.9032258 26.8387097 28.9032258"></polygon>
                <polygon id="Path" fill="#005B93" points="18.5806452 24.7741935 22.7096774 24.7741935 22.7096774 28.9032258 18.5806452 28.9032258"></polygon>
                <polygon id="Path" fill="#005B93" points="107.354839 101.16129 111.483871 101.16129 111.483871 105.290323 107.354839 105.290323"></polygon>
                <polygon id="Path" fill="#005B93" points="107.354839 109.419355 111.483871 109.419355 111.483871 113.548387 107.354839 113.548387"></polygon>
                <polygon id="Path" fill="#005B93" points="111.483871 105.290323 115.612903 105.290323 115.612903 109.419355 111.483871 109.419355"></polygon>
                <polygon id="Path" fill="#005B93" points="103.225806 105.290323 107.354839 105.290323 107.354839 109.419355 103.225806 109.419355"></polygon>
            </g>
        </g>
    </g>
</svg>