<?xml version="1.0" encoding="UTF-8"?>
<svg width="135px" height="135px" viewBox="0 0 135 135" version="1.1" xmlns="http://www.w3.org/2000/svg" xmlns:xlink="http://www.w3.org/1999/xlink">
    <!-- Generator: Sketch 57.1 (83088) - https://sketch.com -->
    <title>Illustration/Tool/Viager/On</title>
    <desc>Created with Sketch.</desc>
    <g id="Illustration/Tool/Viager/On" stroke="none" stroke-width="1" fill="none" fill-rule="evenodd">
        <g id="ic_tool_viager_on">
            <rect id="icon_container" x="0" y="0" width="135" height="135"></rect>
            <g id="growth" transform="translate(0.000000, 9.000000)" fill-rule="nonzero">
                <g id="Group" transform="translate(2.016129, 42.577296)">
                    <ellipse id="Oval" fill="#39E5B1" cx="20.1612903" cy="36.4948255" rx="20.1612903" ry="20.274903"></ellipse>
                    <path d="M22.8802497,39.1967534 L25.182945,40.495782 C24.2672487,42.5342678 22.7254009,43.5534954 20.5573552,43.5534954 C19.0626157,43.5534954 17.8338505,43.0671973 16.8710227,42.0945864 C15.908195,41.1219755 15.2921292,39.802975 15.0228067,38.1375454 L13.608871,38.1375454 L13.608871,36.5787111 L14.8814131,36.5787111 L14.8814131,35.799294 L13.608871,35.799294 L13.608871,34.2604447 L15.0430058,34.2604447 C15.3257944,32.6349854 15.9452267,31.3526239 16.9013214,30.4133216 C17.857416,29.4740193 19.0760818,29.0043752 20.5573552,29.0043752 C22.6446042,29.0043752 24.1662531,29.9769715 25.1223478,31.9221932 L22.7994533,33.2412069 C22.3012068,32.2019788 21.5538483,31.6823726 20.5573552,31.6823726 C19.1434124,31.6823726 18.2411958,32.5417214 17.8506782,34.2604447 L21.9914901,34.2604447 L21.9914901,35.799294 L17.6486874,35.799294 L17.6486874,36.5787111 L21.9914901,36.5787111 L21.9914901,38.1375454 L17.8102801,38.1375454 C18.1873315,39.9495328 19.103014,40.855513 20.5573552,40.855513 C21.5807805,40.855513 22.3550709,40.3025986 22.8802497,39.1967534 Z" id="€" fill="#005B93"></path>
                    <path d="M88.7096774,12.1649418 L80.6451613,12.1649418 C80.6451613,5.44583896 86.0604839,0 92.7419355,0 L100.806452,0 C100.806452,6.71910287 95.391129,12.1649418 88.7096774,12.1649418 Z" id="Path" fill="#39E5B1"></path>
                    <path d="M72.5806452,12.1649418 L80.6451613,12.1649418 C80.6451613,5.44583896 75.2298387,0 68.5483871,0 L60.483871,0 C60.483871,6.71910287 65.8991935,12.1649418 72.5806452,12.1649418 Z" id="Path" fill="#39E5B1"></path>
                    <path d="M88.7096774,40.5498061 L80.6451613,40.5498061 C80.6451613,31.5923539 87.8669355,24.3298836 96.7741935,24.3298836 L104.83871,24.3298836 C104.83871,33.2873358 97.6169355,40.5498061 88.7096774,40.5498061 Z" id="Path" fill="#39E5B1"></path>
                    <path d="M72.5806452,40.5498061 L80.6451613,40.5498061 C80.6451613,31.5923539 73.4233871,24.3298836 64.516129,24.3298836 L56.4516129,24.3298836 C56.4516129,33.2873358 63.6733871,40.5498061 72.5806452,40.5498061 Z" id="Path" fill="#39E5B1"></path>
                    <ellipse id="Oval" fill="#39E5B1" cx="80.6451613" cy="56.7697285" rx="20.1612903" ry="8.10996121"></ellipse>
                </g>
                <ellipse id="Oval" fill="#005B93" cx="34.2741935" cy="79.0721218" rx="2.01612903" ry="2.0274903"></ellipse>
                <ellipse id="Oval" fill="#005B93" cx="10.0806452" cy="79.0721218" rx="2.01612903" ry="2.0274903"></ellipse>
                <path d="M118.951613,28.3848643 C122.28629,28.3848643 125,25.6558623 125,22.3023933 L125,18.2474127 C125,14.8939438 122.28629,12.1649418 118.951613,12.1649418 L116.935484,12.1649418 L116.935484,10.1374515 C116.935484,4.54766075 112.413306,0 106.854839,0 L58.4677419,0 C52.9092742,0 48.3870968,4.54766075 48.3870968,10.1374515 L48.3870968,12.1649418 L46.3709677,12.1649418 C43.0362903,12.1649418 40.3225806,14.8939438 40.3225806,18.2474127 L40.3225806,22.3023933 C40.3225806,25.6558623 43.0362903,28.3848643 46.3709677,28.3848643 L48.3870968,28.3848643 L48.3870968,33.4840024 C48.3870968,36.1927294 47.3366935,38.7392572 45.4314516,40.6532081 L44.4576613,41.6345134 C41.7923387,44.3148556 40.3225806,47.8791835 40.3225806,51.6705904 L40.3225806,66.2887955 C36.3064516,60.542888 29.6774194,56.7697285 22.1774194,56.7697285 C9.94959677,56.7697285 0,66.7753932 0,79.0721218 C0,87.8450724 5.0766129,95.4299136 12.4173387,99.0692587 C8.36895161,105.470046 6.16935484,113.356983 10.2399194,117.440348 C10.4858871,117.687702 10.7701613,117.878286 11.046371,118.083063 L11.0443548,118.08509 L16.4576613,123.528902 C17.8971774,124.978557 19.9193548,125.708454 22.3689516,125.708454 C24.1129032,125.708454 26.0745968,125.335396 28.1995968,124.589279 C32.6169355,123.034194 37.2862903,119.997014 41.0080645,116.256294 C41.0443548,116.219799 41.078629,116.181277 41.1129032,116.144782 C43.0362903,121.689968 48.3024194,125.704399 54.4354839,125.704399 L110.887097,125.704399 C118.667339,125.704399 125,119.336052 125,111.511967 L125,51.6705904 C125,47.877156 123.530242,44.3148556 120.866935,41.6365409 L119.889113,40.6511806 C117.985887,38.7372297 116.935484,36.1927294 116.935484,33.4840024 L116.935484,28.3848643 L118.951613,28.3848643 Z M52.4193548,10.1374515 C52.4193548,6.78398256 55.1330645,4.05498061 58.4677419,4.05498061 L106.854839,4.05498061 C110.189516,4.05498061 112.903226,6.78398256 112.903226,10.1374515 L112.903226,12.1649418 L52.4193548,12.1649418 L52.4193548,10.1374515 Z M44.3548387,22.3023933 L44.3548387,18.2474127 C44.3548387,17.1302656 45.2580645,16.2199224 46.3709677,16.2199224 L118.951613,16.2199224 C120.064516,16.2199224 120.967742,17.1302656 120.967742,18.2474127 L120.967742,22.3023933 C120.967742,23.4195405 120.064516,24.3298836 118.951613,24.3298836 L46.3709677,24.3298836 C45.2580645,24.3298836 44.3548387,23.4195405 44.3548387,22.3023933 Z M4.03225806,79.0721218 C4.03225806,69.0096875 12.171371,60.8247091 22.1774194,60.8247091 C32.1834677,60.8247091 40.3225806,69.0096875 40.3225806,79.0721218 C40.3225806,89.1345562 32.1834677,97.3195346 22.1774194,97.3195346 C12.171371,97.3195346 4.03225806,89.1345562 4.03225806,79.0721218 Z M39.5322581,111.9053 L36.3044355,108.659288 C38.1451613,106.595303 39.7721774,104.314376 41.0725806,101.98479 L44.171371,105.101042 C42.983871,107.454959 41.3891129,109.794682 39.5322581,111.9053 L39.5322581,111.9053 Z M26.7923387,116.296844 C29.1129032,114.987085 31.375,113.361038 33.4334677,111.507912 L36.6794355,114.772171 C34.5806452,116.637462 32.2540323,118.243235 29.9133065,119.437426 L26.7923387,116.296844 Z M45.8064516,101.009567 L42.9092742,98.0960634 C43.5544355,96.4355488 44.0040323,94.8013916 44.2116935,93.252389 L45.3870968,94.4344159 C46.5322581,95.5860304 46.6693548,98.0048263 45.8064516,101.009567 L45.8064516,101.009567 Z M16.2943548,100.553382 C18.171371,101.074447 20.1391129,101.374515 22.1774194,101.374515 C29.6633065,101.374515 36.2822581,97.6155482 40.3004032,91.8858606 C40.078629,95.9266487 37.2520161,102.063862 32.0604839,107.272484 C24.9899194,114.364646 15.7197581,117.213269 13.0887097,114.569422 C10.9556452,112.432447 12.4254032,106.323619 16.2943548,100.553382 Z M19.3084677,120.660003 L18.1270161,119.471894 C19.6693548,119.259007 21.2923387,118.812959 22.9455645,118.162135 L25.8467742,121.081721 C22.8629032,121.949487 20.453629,121.811617 19.3084677,120.660003 Z M82.6612903,93.264554 C93.7379032,93.264554 100.806452,96.8653767 100.806452,99.3470249 C100.806452,101.828673 93.7379032,105.429496 82.6612903,105.429496 C71.5846774,105.429496 64.516129,101.828673 64.516129,99.3470249 C64.516129,96.8653767 71.5846774,93.264554 82.6612903,93.264554 Z M80.6451613,109.443927 L80.6451613,113.498907 C77.5725806,113.373203 74.8689516,112.965677 72.5806452,112.395952 L72.5806452,108.418016 C75.1290323,108.983686 77.8830645,109.330387 80.6451613,109.443927 Z M84.6774194,117.553888 C87.4395161,117.440348 90.1935484,117.093648 92.7419355,116.527978 L92.7419355,120.505914 C90.453629,121.073611 87.75,121.483164 84.6774194,121.608868 L84.6774194,117.553888 Z M84.6774194,113.498907 L84.6774194,109.443927 C87.4395161,109.330387 90.1935484,108.983686 92.7419355,108.418016 L92.7419355,112.395952 C90.453629,112.96365 87.75,113.373203 84.6774194,113.498907 Z M80.6451613,117.553888 L80.6451613,121.608868 C77.5725806,121.483164 74.8689516,121.075638 72.5806452,120.505914 L72.5806452,116.527978 C75.1290323,117.093648 77.8830645,117.440348 80.6451613,117.553888 Z M96.7741935,119.16777 L96.7741935,115.366226 C98.2802419,114.822858 99.6491935,114.188254 100.806452,113.454302 L100.806452,115.566947 C100.806452,116.684094 99.3629032,118.026293 96.7741935,119.16777 L96.7741935,119.16777 Z M96.7741935,111.057809 L96.7741935,107.256265 C98.2802419,106.712897 99.6491935,106.078293 100.806452,105.344341 L100.806452,107.456986 C100.806452,108.574133 99.3629032,109.916332 96.7741935,111.057809 L96.7741935,111.057809 Z M64.516129,105.344341 C65.6733871,106.078293 67.0423387,106.712897 68.5483871,107.256265 L68.5483871,111.057809 C65.9596774,109.916332 64.516129,108.574133 64.516129,107.456986 L64.516129,105.344341 Z M64.516129,113.454302 C65.6733871,114.188254 67.0423387,114.822858 68.5483871,115.366226 L68.5483871,119.16777 C65.9596774,118.026293 64.516129,116.684094 64.516129,115.566947 L64.516129,113.454302 Z M117.03629,43.5180519 L118.014113,44.5034122 C119.917339,46.417363 120.967742,48.9618633 120.967742,51.6705904 L120.967742,111.511967 C120.967742,117.101757 116.445565,121.649418 110.887097,121.649418 L100.683468,121.649418 C103.241935,120.063921 104.83871,118.026293 104.83871,115.566947 L104.83871,107.456986 L104.83871,99.3470249 C104.83871,93.1712894 94.7943548,89.6637312 84.6774194,89.2501232 L84.6774194,54.7422382 L80.6451613,54.7422382 L80.6451613,89.2501232 C70.5282258,89.6637312 60.483871,93.1712894 60.483871,99.3470249 L60.483871,107.456986 L60.483871,115.566947 C60.483871,118.026293 62.0806452,120.063921 64.6391129,121.649418 L54.4354839,121.649418 C49.1633065,121.649418 44.8205645,117.489008 44.4274194,112.270248 C46.5524194,109.431762 48.2580645,106.349976 49.2943548,103.373621 C51.0806452,98.2400152 50.7056452,94.0451377 48.2399194,91.5675446 L43.1028226,86.3994718 C43.8991935,84.1002978 44.3548387,81.6409521 44.3548387,79.0721218 L44.3548387,51.6705904 C44.3548387,48.9618633 45.4052419,46.4153355 47.3104839,44.5013847 L48.2842742,43.5200794 C50.9495968,40.8397372 52.4193548,37.2754092 52.4193548,33.4840024 L52.4193548,28.3848643 L112.903226,28.3848643 L112.903226,33.4840024 C112.903226,37.2754092 114.372984,40.8397372 117.03629,43.5180519 L117.03629,43.5180519 Z" id="Shape" fill="#005B93"></path>
                <polygon id="Path" fill="#005B93" points="48.3870968 60.8247091 52.4193548 60.8247091 52.4193548 64.8796897 48.3870968 64.8796897"></polygon>
                <polygon id="Path" fill="#005B93" points="48.3870968 68.9346703 52.4193548 68.9346703 52.4193548 72.9896509 48.3870968 72.9896509"></polygon>
                <polygon id="Path" fill="#005B93" points="112.903226 52.7147479 116.935484 52.7147479 116.935484 56.7697285 112.903226 56.7697285"></polygon>
                <polygon id="Path" fill="#005B93" points="48.3870968 52.7147479 52.4193548 52.7147479 52.4193548 56.7697285 48.3870968 56.7697285"></polygon>
                <polygon id="Path" fill="#005B93" points="112.903226 60.8247091 116.935484 60.8247091 116.935484 64.8796897 112.903226 64.8796897"></polygon>
                <polygon id="Path" fill="#005B93" points="112.903226 68.9346703 116.935484 68.9346703 116.935484 72.9896509 112.903226 72.9896509"></polygon>
            </g>
        </g>
    </g>
</svg>