<?xml version="1.0" encoding="UTF-8"?>
<svg width="135px" height="135px" viewBox="0 0 135 135" version="1.1" xmlns="http://www.w3.org/2000/svg" xmlns:xlink="http://www.w3.org/1999/xlink">
    <!-- Generator: Sketch 55.2 (78181) - https://sketchapp.com -->
    <title>Illustration/Tool/Rachat pret/On</title>
    <desc>Created with Sketch.</desc>
    <g id="Illustration/Tool/Rachat-pret/On" stroke="none" stroke-width="1" fill="none" fill-rule="evenodd">
        <g id="ic_tool_rachatpret_on">
            <rect id="icon_container" x="0" y="0" width="64" height="64"></rect>
            <g id="transaction" fill-rule="nonzero">
                <path d="M130.645161,67.5 C129.05129,67.5 127.577177,67.9616129 126.290323,68.7106452 L126.290323,50.0806452 C126.290323,46.4791935 123.359516,43.5483871 119.758065,43.5483871 C118.897984,43.5483871 118.081452,43.7247581 117.328065,44.0274194 C116.576855,41.2512097 114.059758,39.1935484 111.048387,39.1935484 C107.446935,39.1935484 104.516129,42.1243548 104.516129,45.7258065 L104.516129,67.5 L108.870968,67.5 L108.870968,45.7258065 C108.870968,44.5260484 109.848629,43.5483871 111.048387,43.5483871 C112.248145,43.5483871 113.225806,44.5260484 113.225806,45.7258065 L113.225806,50.0806452 L113.225806,65.3225806 L113.225806,67.5 L117.580645,67.5 L117.580645,65.3225806 L117.580645,50.0806452 C117.580645,48.8808871 118.558306,47.9032258 119.758065,47.9032258 C120.957823,47.9032258 121.935484,48.8808871 121.935484,50.0806452 L121.935484,76.2096774 L121.935484,80.5645161 L121.935484,83.5737097 L119.80379,84.6384677 C115.819113,86.6329839 112.912258,90.2540323 111.832258,94.5740323 L111.111532,97.4547581 L115.335726,98.5108065 L116.056452,95.6300806 C116.827258,92.5425 118.904516,89.9557258 121.750403,88.5316935 L126.290323,86.265 L126.290323,80.5645161 L126.290323,76.2096774 C126.290323,73.8079839 128.243468,71.8548387 130.645161,71.8548387 L130.645161,95.081371 C130.645161,96.4858065 130.181371,97.8771774 129.33871,99.0007258 L124.112903,105.968468 L124.112903,130.645161 L97.983871,130.645161 L97.983871,101.613629 L94.1276613,96.4727419 L90.6437903,99.0856452 L93.6290323,103.06379 L93.6290323,135 L128.467742,135 L128.467742,107.418629 L132.822581,101.611452 C134.227016,99.738871 135,97.4199194 135,95.0791935 L135,67.5 L130.645161,67.5 Z" id="Path" fill="#005B93"></path>
                <path d="M41.3709677,31.9362097 L41.3709677,0 L6.53225806,0 L6.53225806,27.581371 L2.17741935,33.3885484 C0.772983871,35.261129 0,37.5800806 0,39.9208065 L0,67.5 L4.35483871,67.5 C5.94870968,67.5 7.42282258,67.0383871 8.70967742,66.2893548 L8.70967742,84.9193548 C8.70967742,88.5208065 11.6404839,91.4516129 15.2419355,91.4516129 C16.1020161,91.4516129 16.9185484,91.2752419 17.6719355,90.9725806 C18.4231452,93.7487903 20.9402419,95.8064516 23.9516129,95.8064516 C27.5530645,95.8064516 30.483871,92.8756452 30.483871,89.2741935 L30.483871,67.5 L26.1290323,67.5 L26.1290323,89.2741935 C26.1290323,90.4739516 25.151371,91.4516129 23.9516129,91.4516129 C22.7518548,91.4516129 21.7741935,90.4739516 21.7741935,89.2741935 L21.7741935,84.9193548 L21.7741935,69.6774194 L21.7741935,67.5 L17.4193548,67.5 L17.4193548,69.6774194 L17.4193548,84.9193548 C17.4193548,86.1191129 16.4416935,87.0967742 15.2419355,87.0967742 C14.0421774,87.0967742 13.0645161,86.1191129 13.0645161,84.9193548 L13.0645161,58.7903226 L13.0645161,54.4354839 L13.0645161,51.4262903 L15.1962097,50.3615323 C19.1808871,48.3670161 22.0877419,44.7459677 23.1677419,40.4259677 L23.8884677,37.5452419 L19.6642742,36.4891935 L18.941371,39.3677419 C18.1705645,42.4553226 16.0933065,45.0420968 13.2474194,46.466129 L8.70967742,48.735 L8.70967742,54.4354839 L8.70967742,58.7903226 C8.70967742,61.1920161 6.75653226,63.1451613 4.35483871,63.1451613 L4.35483871,39.918629 C4.35483871,38.5141935 4.81862903,37.1206452 5.66129032,35.9992742 L10.8870968,29.0315323 L10.8870968,4.35483871 L37.016129,4.35483871 L37.016129,33.386371 L40.8723387,38.5272581 L44.3562097,35.9143548 L41.3709677,31.9362097 Z" id="Path" fill="#005B93"></path>
                <path d="M67.5,108.870968 C44.6871774,108.870968 26.1290323,90.3128226 26.1290323,67.5 C26.1290323,44.6871774 44.6871774,26.1290323 67.5,26.1290323 C90.3128226,26.1290323 108.870968,44.6871774 108.870968,67.5 C108.870968,90.3128226 90.3128226,108.870968 67.5,108.870968 Z M67.5,37.016129 C50.6903226,37.016129 37.016129,50.6903226 37.016129,67.5 C37.016129,84.3096774 50.6903226,97.983871 67.5,97.983871 C84.3096774,97.983871 97.983871,84.3096774 97.983871,67.5 C97.983871,50.6903226 84.3096774,37.016129 67.5,37.016129 Z" id="Shape" fill="#39E5B1"></path>
                <path d="M73.5526178,72.9148352 L77.85,75.3255495 C76.1410909,79.1085354 73.2636328,81 69.2175393,81 C66.4279965,81 64.1348257,80.0975365 62.3379581,78.2925824 C60.5410905,76.4876283 59.3913638,74.0398506 58.8887435,70.9491758 L56.25,70.9491758 L56.25,68.0563187 L58.6248691,68.0563187 L58.6248691,66.6098901 L56.25,66.6098901 L56.25,63.7541209 L58.9264398,63.7541209 C59.4541911,60.7376223 60.6102005,58.3578384 62.3945026,56.6146978 C64.1788047,54.8715572 66.4531275,54 69.2175393,54 C73.1128467,54 75.9526089,55.804927 77.736911,59.4148352 L73.4018325,61.8626374 C72.4719849,59.9340563 71.0772344,58.9697802 69.2175393,58.9697802 C66.5787826,58.9697802 64.8950298,60.5645445 64.1662304,63.7541209 L71.8939791,63.7541209 L71.8939791,66.6098901 L63.789267,66.6098901 L63.789267,68.0563187 L71.8939791,68.0563187 L71.8939791,70.9491758 L64.0908377,70.9491758 C64.7945061,74.31183 66.5033896,75.9931319 69.2175393,75.9931319 C71.1274965,75.9931319 72.5725082,74.9670432 73.5526178,72.9148352 Z" id="€" fill="#005B93"></path>
                <path d="M67.5,100.16129 C49.4905645,100.16129 34.8387097,85.5094355 34.8387097,67.5 C34.8387097,49.4905645 49.4905645,34.8387097 67.5,34.8387097 C85.5094355,34.8387097 100.16129,49.4905645 100.16129,67.5 C100.16129,85.5094355 85.5094355,100.16129 67.5,100.16129 Z M67.5,39.1935484 C51.8922581,39.1935484 39.1935484,51.8922581 39.1935484,67.5 C39.1935484,83.1077419 51.8922581,95.8064516 67.5,95.8064516 C83.1077419,95.8064516 95.8064516,83.1077419 95.8064516,67.5 C95.8064516,51.8922581 83.1077419,39.1935484 67.5,39.1935484 Z" id="Shape" fill="#005B93"></path>
                <circle id="Oval" fill="#005B93" cx="47.25" cy="67.5" r="2.25"></circle>
                <circle id="Oval-Copy" fill="#005B93" cx="87.75" cy="67.5" r="2.25"></circle>
                <path d="M100.215726,26.7474194 C99.0725806,25.8285484 97.8793548,24.948871 96.6708871,24.1345161 L99.1052419,20.5243548 C100.413871,21.4062097 101.705081,22.3577419 102.944032,23.355 L100.215726,26.7474194 Z" id="Path" fill="#005B93"></path>
                <path d="M92.583871,21.6435484 C81.8796774,15.7775806 68.9958871,13.863629 57.0462097,16.2870968 L56.1817742,12.0193548 C69.1330645,9.3933871 83.0816129,11.4684677 94.676371,17.8243548 L92.583871,21.6435484 Z" id="Path" fill="#005B93"></path>
                <path d="M52.2580645,21.7741935 C48.6566129,21.7741935 45.7258065,18.8433871 45.7258065,15.2419355 C45.7258065,11.6404839 48.6566129,8.70967742 52.2580645,8.70967742 C55.8595161,8.70967742 58.7903226,11.6404839 58.7903226,15.2419355 C58.7903226,18.8433871 55.8595161,21.7741935 52.2580645,21.7741935 Z" id="Path" fill="#39E5B1"></path>
                <path d="M35.8947581,114.477823 C34.586129,113.595968 33.2949194,112.644435 32.0559677,111.647177 L34.7842742,108.252581 C35.9274194,109.171452 37.1206452,110.051129 38.3291129,110.865484 L35.8947581,114.477823 Z" id="Path" fill="#005B93"></path>
                <path d="M67.5,124.112903 C57.9999194,124.112903 48.6043548,121.713387 40.3258065,117.175645 L42.4183065,113.356452 C53.1225,119.222419 66.0084677,121.134194 77.9559677,118.712903 L78.8204032,122.980645 C75.1166129,123.731855 71.306129,124.112903 67.5,124.112903 L67.5,124.112903 Z" id="Path" fill="#005B93"></path>
                <path d="M82.7419355,126.290323 C79.1404839,126.290323 76.2096774,123.359516 76.2096774,119.758065 C76.2096774,116.156613 79.1404839,113.225806 82.7419355,113.225806 C86.3433871,113.225806 89.2741935,116.156613 89.2741935,119.758065 C89.2741935,123.359516 86.3433871,126.290323 82.7419355,126.290323 Z" id="Path" fill="#39E5B1"></path>
            </g>
        </g>
    </g>
</svg>