<?xml version="1.0" encoding="UTF-8"?>
<svg width="135px" height="135px" viewBox="0 0 135 135" version="1.1" xmlns="http://www.w3.org/2000/svg" xmlns:xlink="http://www.w3.org/1999/xlink">
    <!-- Generator: Sketch 55.2 (78181) - https://sketchapp.com -->
    <title>Illustration/Tool/Usufruit/Off</title>
    <desc>Created with Sketch.</desc>
    <g id="Illustration/Tool/Usufruit/Off" stroke="none" stroke-width="1" fill="none" fill-rule="evenodd">
        <g id="ic_tool_usufruit_off">
            <rect id="icon_container" x="0" y="0" width="135" height="135"></rect>
            <g id="housing-2" transform="translate(3.000000, 1.000000)" fill-rule="nonzero">
                <g id="hand" transform="translate(0.000000, 89.280067)">
                    <polygon id="Path" fill="#D1E6FF" points="2.08960818 2.09458275 12.5376491 2.09458275 12.5376491 39.7970722 2.08960818 39.7970722"></polygon>
                    <path d="M121.067694,10.4729137 L120.21471,10.4729137 C119.239287,10.4729137 118.28019,10.640644 117.360885,10.9689452 L93.9905354,19.3350033 C93.9966572,19.1969326 94.0323683,19.0670441 94.0323683,18.9269278 C94.0323683,15.5170945 91.8988865,12.4018119 88.7226413,11.1765626 L70.733441,4.23927996 C63.8187562,1.57298242 56.0888384,1.39502484 49.0476344,3.74733945 L35.1845941,8.378331 L25.0752982,8.378331 L25.0752982,3.55271368e-15 L3.90798505e-14,3.55271368e-15 L3.90798505e-14,41.891655 L25.0752982,41.891655 L25.0752982,33.513324 L35.2662194,33.513324 L73.2240338,43.0269026 C75.7738045,43.6640728 78.3939773,43.9862377 81.0121096,43.9862377 C85.7341343,43.9862377 90.4888092,42.9133778 94.7598539,40.8883417 L124.699001,26.6721795 C127.649756,25.2710181 129.555707,22.2549417 129.555707,18.9811335 C129.555707,14.2887772 125.748907,10.4729137 121.067694,10.4729137 L121.067694,10.4729137 Z M20.8960818,37.7024895 L16.7168655,37.7024895 L16.7168655,20.9458275 L12.5376491,20.9458275 L12.5376491,37.7024895 L4.17921637,37.7024895 L4.17921637,4.1891655 L12.5376491,4.1891655 L12.5376491,8.378331 L16.7168655,8.378331 L16.7168655,4.1891655 L20.8960818,4.1891655 L20.8960818,37.7024895 Z M122.910386,22.8849529 L92.9712392,37.1011151 C87.197268,39.8430957 80.4560371,40.5181077 74.2351673,38.9635346 L36.0314566,29.3865459 L25.0752982,29.3343858 L25.0752982,12.5674965 L35.8620842,12.5674965 L50.3658833,7.72070558 C56.4908433,5.67623756 63.2188101,5.82964925 69.2305149,8.15230431 L87.2207354,15.0895867 C88.7961041,15.6930067 89.8531519,17.2363296 89.8531519,18.9269278 C89.8531519,19.6970553 89.6276621,20.4119545 89.2572871,21.0296925 L89.1511742,21.0675343 L89.1848446,21.1636722 C88.4512369,22.2907379 87.187065,23.0404102 85.7494389,23.0404102 L84.7770773,23.0404102 C84.2546753,23.0404102 83.741456,22.9422267 83.2537448,22.7448369 L63.4657266,14.8103773 L61.912805,18.7009011 L81.703884,26.6343377 C82.6874691,27.0280949 83.7200294,27.2295757 84.7770773,27.2295757 L85.7494389,27.2295757 C88.138,27.2295757 90.2755631,26.1966029 91.787672,24.5714602 L118.766881,14.9136748 C119.235206,14.7459442 119.721897,14.6620792 120.21471,14.6620792 L121.067694,14.6620792 C123.444012,14.6620792 125.376491,16.5991593 125.376491,18.9811335 C125.376491,20.6420721 124.409231,22.1751674 122.910386,22.8849529 Z" id="Shape" fill="#005B93"></path>
                    <polygon id="Path" fill="#005B93" points="12.5376491 12.5674965 16.7168655 12.5674965 16.7168655 16.756662 12.5376491 16.756662"></polygon>
                </g>
                <g id="property" transform="translate(32.988722, 0.000000)">
                    <g id="Group" transform="translate(12.567132, 22.757764)" fill="#D1E6FF">
                        <polygon id="Path" points="11.1707841 53.1055901 0 53.1055901 0 39.1304348 11.1707841 39.1304348"></polygon>
                        <polygon id="Path" points="25.1342642 53.1055901 13.9634801 53.1055901 13.9634801 39.1304348 25.1342642 39.1304348"></polygon>
                        <polygon id="Path-Copy" points="53.584855 56.7391304 42.4140709 56.7391304 42.4140709 36.9293478 53.584855 36.9293478"></polygon>
                        <polygon id="Path" points="32.1160043 16.7701863 6.98174006 16.7701863 6.98174006 0 32.1160043 0"></polygon>
                    </g>
                    <path d="M81.8259936,53.5031056 C84.4441461,53.5031056 86.5735768,51.3718944 86.5735768,48.7515528 L86.5735768,48.4888199 C86.5735768,46.7642857 85.6380236,45.1725155 84.1313641,44.3354037 L79.5918367,41.8114907 L79.5918367,28.3478261 L85.8991407,28.3478261 L76.322986,5.98757764 L42.5299678,5.98757764 L32.1160043,0.196273292 L8.02760473,13.5900621 C6.52094522,14.4271739 5.58539205,16.0189441 5.58539205,17.7434783 L5.58539205,18.0062112 C5.58539205,20.6265528 7.71482277,22.757764 10.3329753,22.757764 C11.1107411,22.757764 11.8829216,22.5635093 12.5671321,22.2001553 L13.9634801,21.4552795 L13.9634801,36.7329193 L10.2505908,36.7329193 L0.67443609,59.0931677 L6.98174006,59.0931677 L6.98174006,78.6583851 C3.13200859,78.6583851 0,81.7930124 0,85.6459627 L0,87.0434783 L86.5735768,87.0434783 L86.5735768,85.6459627 C86.5735768,81.7930124 83.4415682,78.6583851 79.5918367,78.6583851 L79.5918367,52.9440994 C80.2760473,53.3088509 81.0482277,53.5031056 81.8259936,53.5031056 Z M83.7808808,48.4888199 L83.7808808,48.7515528 C83.7808808,49.8304348 82.9039742,50.7080745 81.8259936,50.7080745 C81.5062299,50.7080745 81.1878625,50.6284161 80.9058002,50.4774845 L60.0429646,39.3406832 L39.1801289,50.478882 C38.8980666,50.6284161 38.5796992,50.7080745 38.2599356,50.7080745 C37.1819549,50.7080745 36.3050483,49.8304348 36.3050483,48.7515528 L36.3050483,48.4888199 C36.3050483,47.778882 36.6904404,47.1234472 37.3104189,46.7782609 L60.0429646,34.1391304 L82.7755102,46.7796584 C83.3954887,47.1248447 83.7808808,47.778882 83.7808808,48.4888199 Z M76.7991407,40.2588509 L60.0429646,30.9416149 L50.2685285,36.3765528 L50.2685285,28.3478261 L76.7991407,28.3478261 L76.7991407,40.2588509 Z M74.4825994,8.7826087 L81.6640172,25.552795 L50.2685285,25.552795 L50.2685285,21.4524845 L51.6648765,22.1973602 C52.349087,22.5635093 53.1212675,22.7563665 53.8990333,22.7563665 C56.5171858,22.7563665 58.6466165,20.6251553 58.6466165,18.0048137 L58.6466165,17.7420807 C58.6466165,16.0175466 57.7110634,14.4257764 56.2044039,13.5886646 L47.558217,8.7826087 L74.4825994,8.7826087 Z M11.2531686,19.7335404 C10.9711063,19.8830745 10.652739,19.9627329 10.3329753,19.9627329 C9.25499463,19.9627329 8.37808808,19.0850932 8.37808808,18.0062112 L8.37808808,17.7434783 C8.37808808,17.0335404 8.76348013,16.3781056 9.38345865,16.0329193 L32.1160043,3.39378882 L54.8485499,16.0343168 C55.4685285,16.3795031 55.8539205,17.0349379 55.8539205,17.7448758 L55.8539205,18.0062112 C55.8539205,19.0850932 54.977014,19.9627329 53.8990333,19.9627329 C53.5792696,19.9627329 53.2609023,19.8830745 52.97884,19.7321429 L32.1160043,8.59534161 L11.2531686,19.7335404 Z M32.1160043,11.7649068 L47.4758324,19.9627329 L47.4758324,37.9305901 L35.954565,44.3368012 C35.5691729,44.5506211 35.2214823,44.8161491 34.9170784,45.1194099 L16.7561762,45.1194099 L16.7561762,19.9641304 L32.1160043,11.7649068 Z M12.0909774,39.5279503 L13.9634801,39.5279503 L13.9634801,47.9130435 L33.5514501,47.9130435 C33.5277121,48.1031056 33.5123523,48.2945652 33.5123523,48.4888199 L33.5123523,48.7515528 C33.5123523,51.3718944 35.641783,53.5031056 38.2599356,53.5031056 C39.0377014,53.5031056 39.8098818,53.3088509 40.4940924,52.9454969 L40.4940924,56.2981366 L4.91095596,56.2981366 L12.0909774,39.5279503 Z M9.77443609,59.0931677 L40.4940924,59.0931677 L40.4940924,78.6583851 L9.77443609,78.6583851 L9.77443609,59.0931677 Z M83.5421053,84.2484472 L3.03147154,84.2484472 C3.60816327,82.6217391 5.16090226,81.4534161 6.98174006,81.4534161 L79.5918367,81.4534161 C81.4126745,81.4534161 82.9654135,82.6217391 83.5421053,84.2484472 Z M76.7991407,78.6583851 L43.2867884,78.6583851 L43.2867884,51.4543478 L60.0429646,42.5102484 L76.7991407,51.4529503 L76.7991407,78.6583851 Z" id="Shape" stroke="#005B93" stroke-width="0.5" fill="#005B93"></path>
                    <polygon id="Path" fill="#005B93" points="30.2396617 22.757764 34.6381579 22.757764 34.6381579 39.5279503 30.2396617 39.5279503"></polygon>
                    <polygon id="Path" fill="#005B93" points="71.2137487 73.068323 74.0064447 73.068323 74.0064447 75.863354 71.2137487 75.863354"></polygon>
                    <polygon id="Path" fill="#005B93" points="71.2137487 67.4782609 74.0064447 67.4782609 74.0064447 70.2732919 71.2137487 70.2732919"></polygon>
                    <polygon id="Path" fill="#005B93" points="71.2137487 61.8881988 74.0064447 61.8881988 74.0064447 64.6832298 71.2137487 64.6832298"></polygon>
                    <polygon id="Path" fill="#005B93" points="46.0794844 52.1055901 48.8721805 52.1055901 48.8721805 54.9006211 46.0794844 54.9006211"></polygon>
                    <polygon id="Path" fill="#005B93" points="46.0794844 57.6956522 48.8721805 57.6956522 48.8721805 60.4906832 46.0794844 60.4906832"></polygon>
                    <polygon id="Path" fill="#005B93" points="46.0794844 63.2857143 48.8721805 63.2857143 48.8721805 66.0807453 46.0794844 66.0807453"></polygon>
                    <polygon id="Path" fill="#005B93" points="69.8174006 11.5776398 72.6100967 11.5776398 72.6100967 14.3726708 69.8174006 14.3726708"></polygon>
                    <polygon id="Path" fill="#005B93" points="64.2320086 11.5776398 67.0247046 11.5776398 67.0247046 14.3726708 64.2320086 14.3726708"></polygon>
                    <polygon id="Path" fill="#005B93" points="58.6466165 11.5776398 61.4393126 11.5776398 61.4393126 14.3726708 58.6466165 14.3726708"></polygon>
                </g>
            </g>
        </g>
    </g>
</svg>