<?xml version="1.0" encoding="UTF-8"?>
<svg width="24px" height="24px" viewBox="0 0 24 24" version="1.1" xmlns="http://www.w3.org/2000/svg" xmlns:xlink="http://www.w3.org/1999/xlink">
    <!-- Generator: Sketch 57.1 (83088) - https://sketch.com -->
    <title>Icon/Warning</title>
    <desc>Created with Sketch.</desc>
    <g id="Icon/Warning" stroke="none" stroke-width="1" fill="none" fill-rule="evenodd">
        <path d="M2.47052627,23.1298279 L21.5551042,23.1298279 C22.426165,23.1294918 23.2313139,22.6659156 23.6689291,21.9127622 C24.1065444,21.1596088 24.110578,20.2305494 23.6795191,19.4736245 L13.7505163,2.03634699 C13.3967106,1.3968814 12.723544,1 11.9927262,1 C11.2619084,1 10.5887418,1.3968814 10.2349361,2.03634699 L0.331044633,19.423402 C-0.110310298,20.1878511 -0.110350747,21.1296818 0.330938521,21.8941688 C0.772227788,22.6586559 1.58781644,23.1298279 2.47052627,23.1298279 L2.47052627,23.1298279 Z M2.06372342,20.4278534 L12.0128152,3.04079846 L12.0128152,3.04079846 L21.9568848,20.4479425 C22.0473039,20.5876112 22.0505522,20.7665111 21.9652632,20.9093702 C21.8799741,21.0522294 21.7209517,21.1342511 21.5551042,21.1209249 L2.47052627,21.1209249 C2.30401715,21.1247871 2.14917076,21.0357504 2.06874568,20.8899011 C1.98271654,20.7437892 1.98464986,20.5620576 2.07376794,20.4178089 L2.06372342,20.4278534 Z" id="Shape" fill="#EF5350" fill-rule="nonzero"></path>
        <path d="M11.9882353,9.00010872 C11.8499998,9.00010872 11.7352945,8.99681964 11.6117647,9.02642308 C11.4882357,9.05602652 11.3735296,9.13168051 11.2823529,9.21062359 C11.1911763,9.28956667 11.1235298,9.39811319 11.0705882,9.5263959 C11.0176474,9.65467861 11,9.80598575 11,10.0000544 C11,10.1908339 11.0176474,10.342141 11.0705882,10.4737128 C11.1235298,10.6052846 11.1911763,10.7105421 11.2823529,10.7894851 C11.3735296,10.8684282 11.4882357,10.9144788 11.6117647,10.9473713 C11.7352945,10.9802647 11.8499998,11 11.9882353,11 C12.1235298,11 12.2676472,10.9802647 12.3882353,10.9473713 C12.5088233,10.9144788 12.602941,10.8684282 12.6941176,10.7894851 C12.7852943,10.7105421 12.8529416,10.6052846 12.9058824,10.4737128 C12.9588239,10.3454301 13,10.1908339 13,10.0000544 C13,9.80598575 12.9588239,9.65467861 12.9058824,9.5263959 C12.8529416,9.39811319 12.7852943,9.28956667 12.6941176,9.21062359 C12.602941,9.13168051 12.5088233,9.05602652 12.3882353,9.02642308 C12.2676472,8.99681964 12.1235298,9.00010872 11.9882353,9.00010872 Z" id="Path" fill="#EF5350"></path>
        <polygon id="Path" fill="#EF5350" points="11 11.5722147 11 18.5722147 13 18.5722147 13 11.5722147"></polygon>
    </g>
</svg>