<?xml version="1.0" encoding="UTF-8"?>
<svg width="125px" height="22px" viewBox="0 0 125 22" version="1.1" xmlns="http://www.w3.org/2000/svg" xmlns:xlink="http://www.w3.org/1999/xlink">
    <!-- Generator: Sketch 57.1 (83088) - https://sketch.com -->
    <title>logo_hectaur</title>
    <desc>Created with Sketch.</desc>
    <g id="Symbols" stroke="none" stroke-width="1" fill="none" fill-rule="evenodd">
        <g id="Navigation/Header/Desktop" transform="translate(-40.000000, -25.000000)" fill="#005B93" fill-rule="nonzero">
            <g id="Header">
                <g id="Bg">
                    <path d="M51.0838526,25.4808743 L57.0751242,25.4808743 L57.0751242,46.5191257 L51.0838526,46.5191257 L51.0838526,38.7650273 L45.9912717,38.7650273 L45.9912717,46.5191257 L40,46.5191257 L40,25.4808743 L45.9912717,25.4808743 L45.9912717,32.9344262 L51.0838526,32.9344262 L51.0838526,25.4808743 Z M65.5364816,40.989071 L73.3251347,40.989071 L73.3251347,46.5191257 L59.5452099,46.5191257 L59.5452099,25.4808743 L73.175353,25.4808743 L73.175353,30.9508197 L65.5364816,30.9508197 L65.5364816,33.2349727 L72.426444,33.2349727 L72.426444,38.6448087 L65.5364816,38.6448087 L65.5364816,40.989071 Z M85.2614297,47 C82.1060108,47 79.4898483,45.948098 77.4128638,43.8442623 C75.3358792,41.7404266 74.2974025,39.1256987 74.2974025,36 C74.2974025,32.8743013 75.3358792,30.2595734 77.4128638,28.1557377 C79.4898483,26.051902 82.1060108,25 85.2614297,25 C87.1986172,25 88.9859954,25.4608333 90.6236178,26.3825137 C92.2612402,27.304194 93.5393654,28.5464403 94.4580317,30.1092896 L89.2456253,33.1147541 C88.9061182,32.4335121 88.3768945,31.8925339 87.6579383,31.4918033 C86.9389821,31.0910727 86.1401539,30.8907104 85.2614297,30.8907104 C83.7835827,30.8907104 82.5853329,31.3715799 81.6666667,32.3333333 C80.7480004,33.2950868 80.2886742,34.5173042 80.2886742,36 C80.2886742,37.4827032 80.7480004,38.7049132 81.6666667,39.6666667 C82.5853329,40.6284201 83.7835827,41.1092896 85.2614297,41.1092896 C86.1601249,41.1092896 86.9639458,40.9089273 87.6729165,40.5081967 C88.3818872,40.1074661 88.9061182,39.5564698 89.2456253,38.8551913 L94.4580317,41.8606557 C93.5393654,43.4435416 92.2612402,44.695806 90.6236178,45.6174863 C88.9859954,46.5391621 87.1986172,47 85.2614297,47 Z M110.408479,25.4808743 L110.408479,31.3114754 L105.465679,31.3114754 L105.465679,46.5191257 L99.4744078,46.5191257 L99.4744078,31.3114754 L94.5316087,31.3114754 L94.5316087,25.4808743 L110.408479,25.4808743 Z M122.314817,46.5191257 L121.595865,43.8142077 L115.54468,43.8142077 L114.825728,46.5191257 L108.385111,46.5191257 L115.065378,25.4808743 L122.075166,25.4808743 L128.755434,46.5191257 L122.314817,46.5191257 Z M116.832804,39.0054645 L120.307741,39.0054645 L118.570272,32.5437158 L116.832804,39.0054645 Z M143.23802,44.9262295 C141.66031,46.3087501 139.603327,47 137.06701,47 C134.530692,47 132.473709,46.3087501 130.896,44.9262295 C129.318291,43.5437089 128.529448,41.7304302 128.529448,39.4863388 L128.529448,25.4808743 L134.520719,25.4808743 L134.520719,38.8251366 C134.520719,40.387986 135.369474,41.1693989 137.06701,41.1693989 C138.764545,41.1693989 139.6133,40.387986 139.6133,38.8251366 L139.6133,25.4808743 L145.604572,25.4808743 L145.604572,39.4863388 C145.604572,41.7304302 144.815729,43.5437089 143.23802,44.9262295 Z M158.589339,46.489071 L155.264184,39.8770492 L153.766366,39.8770492 L153.766366,46.489071 L147.775094,46.489071 L147.775094,25.4508197 L156.162874,25.4508197 C158.45954,25.4508197 160.356757,26.1270424 161.854582,27.4795082 C163.352408,28.831974 164.101309,30.6202075 164.101309,32.8442623 C164.101309,34.0865272 163.816727,35.208556 163.247553,36.2103825 C162.678379,37.212209 161.884544,38.0236763 160.866023,38.6448087 L165,46.489071 L158.589339,46.489071 Z M153.766366,30.9808743 L153.766366,34.8879781 L156.043049,34.8879781 C156.682121,34.9080147 157.186381,34.7477248 157.555845,34.4071038 C157.925309,34.0664828 158.110038,33.5856133 158.110038,32.9644809 C158.110038,32.3433484 157.925309,31.8574699 157.555845,31.5068306 C157.186381,31.1561913 156.682121,30.9808743 156.043049,30.9808743 L153.766366,30.9808743 Z" id="logo_hectaur"></path>
                </g>
            </g>
        </g>
    </g>
</svg>